<?xml version="1.0" encoding="UTF-8"?>
<svg xmlns="http://www.w3.org/2000/svg" xmlns:xlink="http://www.w3.org/1999/xlink" viewBox="0 0 834 612">
  <defs>
    <style>
      .cls-1 {
        fill: #edc9e0;
      }

      .cls-2 {
        stroke: #231f20;
      }

      .cls-2, .cls-3, .cls-4, .cls-5, .cls-6, .cls-7 {
        fill: none;
      }

      .cls-2, .cls-3, .cls-5, .cls-6, .cls-7 {
        stroke-miterlimit: 10;
      }

      .cls-8 {
        fill: #cdaed3;
      }

      .cls-9 {
        fill: #5c4d73;
      }

      .cls-10 {
        fill: url(#linear-gradient-2);
      }

      .cls-3, .cls-7 {
        stroke: #a0374e;
      }

      .cls-11 {
        fill: #a79158;
      }

      .cls-12 {
        fill: #733868;
      }

      .cls-13 {
        fill: #f8bdd7;
      }

      .cls-14 {
        fill: #666bb1;
      }

      .cls-14, .cls-15 {
        opacity: .9;
      }

      .cls-16 {
        fill: #564484;
      }

      .cls-17 {
        fill: #da7595;
      }

      .cls-18 {
        fill: #d7e6f0;
      }

      .cls-19 {
        fill: #542f4e;
      }

      .cls-20 {
        fill: #fcd3d0;
      }

      .cls-21 {
        fill: #a0374e;
      }

      .cls-22 {
        fill: #c57db5;
      }

      .cls-23 {
        fill: url(#linear-gradient-6);
      }

      .cls-24 {
        filter: url(#outer-glow-1);
      }

      .cls-24, .cls-25 {
        fill: #f8e0dd;
      }

      .cls-26 {
        fill: #6888b7;
      }

      .cls-27 {
        fill: #574f84;
      }

      .cls-28 {
        fill: #6ea9db;
      }

      .cls-29 {
        fill: #6f4284;
      }

      .cls-30 {
        fill: #3a1849;
      }

      .cls-31 {
        fill: #563c3c;
      }

      .cls-32 {
        fill: #cc9d77;
      }

      .cls-33 {
        fill: url(#linear-gradient-11);
      }

      .cls-34 {
        fill: #483c60;
      }

      .cls-35 {
        fill: #b5aed6;
      }

      .cls-36 {
        fill: url(#linear-gradient-10);
      }

      .cls-4 {
        filter: url(#outer-glow-2);
      }

      .cls-37 {
        fill: #88489c;
      }

      .cls-38 {
        fill: #6f3b97;
      }

      .cls-39 {
        fill: #a24e7d;
      }

      .cls-40 {
        fill: #fbb15b;
      }

      .cls-41 {
        fill: #562871;
      }

      .cls-42 {
        fill: #695475;
      }

      .cls-43 {
        fill: #dd93a4;
      }

      .cls-44 {
        fill: #4b2f5a;
      }

      .cls-45 {
        fill: #c3447b;
      }

      .cls-46 {
        fill: #948fc2;
      }

      .cls-47 {
        fill: #fbb040;
      }

      .cls-48 {
        fill: #5563ad;
      }

      .cls-49 {
        fill: #6779b2;
      }

      .cls-15 {
        fill: #676bb2;
      }

      .cls-5 {
        stroke: #2d1919;
      }

      .cls-50 {
        fill: url(#linear-gradient-5);
      }

      .cls-51 {
        fill: #cd6061;
      }

      .cls-52 {
        fill: #6d395c;
      }

      .cls-53 {
        fill: #7c4384;
      }

      .cls-54 {
        fill: #f8b3be;
      }

      .cls-55 {
        fill: #3c101f;
      }

      .cls-56 {
        fill: url(#linear-gradient-7);
      }

      .cls-57 {
        fill: #507993;
      }

      .cls-58 {
        fill: #49256d;
      }

      .cls-59 {
        fill: #5c1e59;
      }

      .cls-60 {
        fill: url(#linear-gradient-9);
      }

      .cls-61 {
        fill: #2d1919;
      }

      .cls-62 {
        fill: #8e8397;
      }

      .cls-63 {
        fill: url(#linear-gradient-3);
      }

      .cls-64 {
        fill: #eac3bd;
      }

      .cls-65 {
        fill: url(#linear-gradient);
      }

      .cls-66 {
        fill: #ef447a;
      }

      .cls-67 {
        fill: #3f8dcc;
      }

      .cls-68 {
        fill: #6b89b7;
      }

      .cls-69 {
        fill: #4a2154;
      }

      .cls-70 {
        fill: #b86264;
      }

      .cls-71 {
        fill: url(#linear-gradient-8);
      }

      .cls-72 {
        fill: #7c5273;
      }

      .cls-6 {
        stroke: #3c101f;
      }

      .cls-73 {
        fill: url(#linear-gradient-4);
        opacity: .67;
      }

      .cls-7 {
        stroke-width: .75px;
      }
    </style>
    <linearGradient id="linear-gradient" x1="417" y1="612" x2="417" y2="0" gradientUnits="userSpaceOnUse">
      <stop offset="0" stop-color="#6858a5"/>
      <stop offset=".37" stop-color="#685aa6"/>
      <stop offset=".58" stop-color="#6c62ab"/>
      <stop offset=".75" stop-color="#7170b4"/>
      <stop offset=".9" stop-color="#7984c0"/>
      <stop offset="1" stop-color="#8096cc"/>
    </linearGradient>
    <filter id="outer-glow-1" filterUnits="userSpaceOnUse">
      <feOffset dx="0" dy="0"/>
      <feGaussianBlur result="blur" stdDeviation="5"/>
      <feFlood flood-color="#231f20" flood-opacity=".79"/>
      <feComposite in2="blur" operator="in"/>
      <feComposite in="SourceGraphic"/>
    </filter>
    <linearGradient id="linear-gradient-2" x1="21" y1="163.96" x2="346.63" y2="163.96" gradientUnits="userSpaceOnUse">
      <stop offset="0" stop-color="#b5868f"/>
      <stop offset="1" stop-color="#9593c8"/>
    </linearGradient>
    <linearGradient id="linear-gradient-3" x1="21" y1="190.13" x2="339.05" y2="190.13" gradientUnits="userSpaceOnUse">
      <stop offset="0" stop-color="#c6ad7a"/>
      <stop offset=".23" stop-color="#c3ab7d"/>
      <stop offset=".46" stop-color="#bca789"/>
      <stop offset=".68" stop-color="#afa19d"/>
      <stop offset=".9" stop-color="#9e98b8"/>
      <stop offset="1" stop-color="#9593c8"/>
    </linearGradient>
    <linearGradient id="linear-gradient-4" x1="418.43" y1="66.75" x2="418.43" y2="305.11" gradientUnits="userSpaceOnUse">
      <stop offset="0" stop-color="#916baf"/>
      <stop offset=".22" stop-color="#936ca8"/>
      <stop offset=".52" stop-color="#997296"/>
      <stop offset=".87" stop-color="#a47b79"/>
      <stop offset="1" stop-color="#a97f6d"/>
    </linearGradient>
    <linearGradient id="linear-gradient-5" x1="683.41" y1="143.56" x2="760.05" y2="10.82" xlink:href="#linear-gradient-2"/>
    <linearGradient id="linear-gradient-6" x1="603.79" y1="98.87" x2="813" y2="98.87" xlink:href="#linear-gradient-3"/>
    <filter id="outer-glow-2" filterUnits="userSpaceOnUse">
      <feOffset dx="0" dy="0"/>
      <feGaussianBlur result="blur-2" stdDeviation="5"/>
      <feFlood flood-color="#231f20" flood-opacity=".75"/>
      <feComposite in2="blur-2" operator="in"/>
      <feComposite in="SourceGraphic"/>
    </filter>
    <linearGradient id="linear-gradient-7" x1="813.96" y1="417.64" x2="813.96" y2="414.71" xlink:href="#linear-gradient"/>
    <linearGradient id="linear-gradient-8" x1="814.43" y1="256.39" x2="814.43" y2="251.59" xlink:href="#linear-gradient"/>
    <linearGradient id="linear-gradient-9" x1="19.69" y1="301.77" x2="19.69" y2="297.91" xlink:href="#linear-gradient"/>
    <linearGradient id="linear-gradient-10" x1="729.06" y1="327.99" x2="728.93" y2="328.86" xlink:href="#linear-gradient-4"/>
    <linearGradient id="linear-gradient-11" x1="729.06" y1="327.99" x2="728.93" y2="328.86" xlink:href="#linear-gradient-4"/>
  </defs>
  <g id="Background">
    <rect class="cls-65" x="21" width="792" height="612"/>
    <g>
      <path class="cls-25" d="m384.61,74.52c-3.37,9.27-12.42,15.82-22.94,15.44-12.2-.44-22.15-10.37-22.61-22.57-.5-13.39,10.2-24.39,23.47-24.39,10.15,0,18.8,6.44,22.08,15.47.11.3-.32.5-.48.22-2.84-5.09-8.37-8.47-14.66-8.22-8.14.32-14.86,6.86-15.37,14.99-.59,9.33,6.8,17.09,16.01,17.09,6.02,0,11.27-3.32,14.02-8.23.16-.29.59-.09.48.22Z"/>
      <path class="cls-24" d="m384.61,74.52c-3.37,9.27-12.42,15.82-22.94,15.44-12.2-.44-22.15-10.37-22.61-22.57-.5-13.39,10.2-24.39,23.47-24.39,10.15,0,18.8,6.44,22.08,15.47.11.3-.32.5-.48.22-2.84-5.09-8.37-8.47-14.66-8.22-8.14.32-14.86,6.86-15.37,14.99-.59,9.33,6.8,17.09,16.01,17.09,6.02,0,11.27-3.32,14.02-8.23.16-.29.59-.09.48.22Z"/>
    </g>
    <path class="cls-14" d="m815.86,254.15h-.75c-.11.47-.41,1-.91,1.59-.19.22-.61.44-1.2.65v36.63c-13.23,2.27-28.53,4.42-45.67,6.44h-.01c-23.53,2.76-50.53,5.27-80.42,7.45-45.65,3.35-98.01,5.96-154.92,7.63-15.33.45-31,.83-46.95,1.14-.48.01-.95.02-1.43.02-3.16.07-6.33.12-9.51.18-.78.01-1.56.03-2.35.04h-.24c-11.69.2-23.52.36-35.49.47h-.04c-1.84.02-3.69.04-5.54.05-1.99.02-3.98.04-5.98.05-5.61.05-11.25.08-16.91.11-.96,0-1.92.01-2.88.01-6.97.03-13.99.04-21.04.04-3.02,0-6.03,0-9.04,0-30.51-.05-60.34-.36-89.24-.9-.36-.01-.73-.01-1.09-.02-15.28-.29-30.29-.65-45-1.07-9.43-.27-18.73-.56-27.9-.88-71.24-2.48-134.5-6.44-185.25-11.49-1.72-.17-3.42-.34-5.1-.51-.88-.09-1.75-.18-2.62-.27.84-1.19,1.71-2.39,2.62-3.59v-136.32c18.16-17.21,44.8-28.06,74.5-28.06,4.16,0,8.27.21,12.3.63,36.67,3.77,67.13,24.2,80.06,51.89.58,1.24,1.12,2.49,1.63,3.75,2.15-.15,4.31-.26,6.5-.34h.01c2.75-.11,5.52-.16,8.33-.16,14.88,0,29,1.47,41.79,4.13h.02c6.49,1.34,12.63,2.98,18.34,4.9-.65-2.19-.99-4.44-.99-6.73,0-.92.05-1.83.17-2.74,1.39-11.89,11.85-22.33,27.37-29.01,11.27-4.85,25.22-7.72,40.32-7.72,6.61,0,13,.55,19.04,1.58,7.48-25.76,43.77-45.3,87.41-45.3,21.03,0,40.36,4.54,55.57,12.13-.8-4.15-1.35-8.4-1.64-12.72-3.08-45.86,24.18-87.34,65.93-107.82h116.95c18,8.96,33.3,21.97,44.38,37.81,10.85,15.49,17.65,33.7,18.98,53.46.09,1.33.16,2.67.19,3.99.21,7.29-.34,14.45-1.58,21.42-.81,4.51-1.91,8.93-3.28,13.25,7.4,4.86,13.69,11.08,18.43,18.28,3.21,4.86,5.71,10.17,7.38,15.8,28.36,3.56,50.3,27.76,50.3,57.09,0,2.01-.1,4-.31,5.96-.81,7.95-3.25,15.42-6.97,22.07,3.76.58,7.39,1.17,10.87,1.77v.69c1.46.5,2.36,1.26,2.15,2.4l.71.16Z"/>
    <path class="cls-48" d="m239.49,22.91c1.34,3.26,2.1,6.94,2.1,10.85,0,13.24-8.67,23.97-19.35,23.97-3.74,0-7.23-1.31-10.19-3.59.06.49.08.98.08,1.47,0,8.08-6.55,14.63-14.63,14.63-1.4,0-2.76-.2-4.04-.57-.14-.58-.32-1.16-.51-1.73-.61.29-1.21.57-1.83.84.74.36,1.53.66,2.34.89.5,1.9.76,3.83.76,5.8,0,14.38-13.65,27.06-34.42,34.56-7.47,2.7-15.87,4.73-24.89,5.93h0c-6.06.8-12.4,1.23-18.94,1.23-18.06,0-34.69-3.26-47.93-8.74-4.96,11.61-16.47,19.74-29.89,19.74-6.3,0-12.17-1.78-17.14-4.88V0h253.48c-5.17,11.54-18.49,20.38-34.99,22.91Z"/>
    <g>
      <path class="cls-10" d="m346.63,196.93c0,.42-.1.84-.3,1.26-.81,1.73-3.31,3.42-7.28,5.02-13.92,5.62-46.03,10.31-88.22,13.1h-.01s-.01,0-.01.01c-6,.39-12.21.75-18.6,1.07-.4.02-.81.04-1.22.07h-.05c-1.02.04-2.04.09-3.07.14-1.69.08-3.39.15-5.1.23-19.48.82-40.45,1.27-62.3,1.27-28.82,0-56.12-.78-80.47-2.17-22.56-1.29-42.6-3.11-59-5.31v-41.02c4.09-1.25,8.97-2.26,14.38-2.94-.16-.79-.23-1.58-.23-2.39,0-15.79,30.29-28.6,67.65-28.6,1.14,0,2.27.01,3.38.04.48-.86,1.02-1.71,1.62-2.55,5.26-7.38,14.8-13.71,27.1-18.2h0c7.41-2.71,15.82-4.74,24.89-5.93,6.02-.79,12.34-1.21,18.84-1.21,41.62,0,75.36,17.25,75.36,38.54,0,.17,0,.35-.01.52,2.34-.34,4.78-.52,7.28-.52,13.62,0,25.23,5.19,29.76,12.49.65,1.04,1.15,2.12,1.49,3.24,4.85-.95,10.26-1.48,15.97-1.48,21.07,0,38.14,7.22,38.14,16.13,0,4.51-4.38,8.59-11.44,11.52,7.41,2.39,11.44,4.97,11.44,7.67Z"/>
      <path class="cls-63" d="m339.05,203.21c-13.92,5.62-46.03,10.31-88.22,13.1h-.01s-.01,0-.01.01c-6,.39-12.21.75-18.6,1.07-.4.02-.81.04-1.22.07h-.05c-1.02.04-2.04.09-3.07.14-1.69.08-3.39.15-5.1.23-19.48.82-40.45,1.27-62.3,1.27-28.82,0-56.12-.78-80.47-2.17-22.56-1.29-42.6-3.11-59-5.31v-12.85c.65-.34,1.29-.71,1.92-1.1,9.24-5.75,15.18-15.72,24.25-21.74,7.96-5.3,18.12-7.16,27.44-5.02,5.87,1.34,11.4,4.18,17.39,4.68,15.47,1.27,28.3-13.03,43.76-14.33,16.17-1.35,29.52,11.4,43.29,19.97,2.84,1.77,5.79,3.38,8.81,4.82,2.65,1.26,5.37,2.4,8.13,3.41h.01c15.36,5.6,32.21,7.18,48.31,4.31.6-.11,1.2-.22,1.81-.34h.02c5.8-1.16,11.65-2.86,17.52-4.57,14.33-4.16,28.85-8.31,43.48-4.45,3.96,1.04,8.76,2.95,13.64,5.49,6.64,3.45,13.41,8.08,18.27,13.31Z"/>
    </g>
    <path class="cls-73" d="m815.86,254.15h-.75c-.11.47-.41,1-.91,1.59-.19.22-.61.44-1.2.65v10.66c-37.98,9.52-76.28,17.78-114.57,25.98-5.69,1.22-11.4,2.44-17.13,3.61-29.3,5.98-59,10.66-88.6,7.41-22.03-2.43-43.17-9.16-64.3-16.08-2.03-.66-4.07-1.33-6.1-1.99h-.01c-3.3-1.08-6.6-2.16-9.91-3.21-4.85-1.55-9.72-3.05-14.61-4.45-6.01-1.73-12.07-3.31-18.17-4.66-7.08-1.56-14.21-2.79-21.38-3.79-2-.29-4-.55-6.01-.8-.21-.02-.42-.05-.63-.07-.45-.06-.9-.11-1.35-.16-3.31-.39-6.63-.74-9.95-1.05-1.4-.13-2.8-.26-4.2-.38h-.01c-.1,0-.19-.01-.29-.02-.96-.08-1.92-.16-2.87-.23-.55-.05-1.09-.09-1.63-.13-3.74-.29-7.48-.55-11.22-.78-4.95-.31-9.91-.59-14.86-.86h-.01c-1.27-.06-2.53-.13-3.8-.2-4.22-.23-8.45-.45-12.67-.68-1.43-.07-2.85-.15-4.28-.22-1.26-.07-2.53-.14-3.8-.21-22.92-1.22-45.84-2.45-68.76-3.67-2.11-.11-4.23-.23-6.35-.34-9.1-.48-18.2-.97-27.3-1.46-5.91-.31-11.82-.63-17.74-.94h-.01c-7.34-.4-14.67-.79-22.01-1.18-6.33-.34-12.66-.68-19-1-13.48-.68-26.99-1.29-40.5-1.67-3.57-.11-7.12-.2-10.69-.26h-.01c-6.27-.13-12.54-.19-18.81-.18-3.67.01-7.34.04-11,.09-3.69.06-7.38.15-11.07.27-23.17.73-46.23,2.7-69.06,6.67-2.86.49-5.71,1.02-8.56,1.58-2.63.52-5.26,1.06-7.9,1.63-5.24,1.11-10.5,2.31-15.77,3.51-1.7.39-3.4.77-5.1,1.16v-37.02c14.93-.61,29.96.55,44.93,2.12,4.7.5,9.4,1.03,14.09,1.57-.52-1.92-.86-3.86-1.03-5.8-.37-4.11,0-8.23,1.01-12.23,3.53-14.15,14.88-26.81,28.69-32.54,19.55-8.12,42.15-4.87,61.89,2.76,19.33,7.47,36.88,18.84,55.46,27.99.4.21.8.4,1.2.6.32.15.63.3.95.45.92.44,1.81.87,2.75,1.27h.05c.58.24,1.16.47,1.75.69,2.48.91,5.03,1.53,7.65,1.5,3.81-.04,7.22-1.37,10.42-3.33,0-.01.01-.01.01-.01h.01c4.71-2.9,8.95-7.18,13.23-10.78,15.48-13.03,36.76-18.58,56.72-15.63,6.02.89,11.92,2.55,17.5,5.02,2.51,1.11,5.26,2.31,8.05,3.27,6.63,2.28,13.44,3.18,17.54-1.89,4.66-5.76,1.07-14.24,1.59-21.64.69-9.85,9.33-17.79,18.86-20.41,9.52-2.62,19.7-.9,29.22,1.73,5.22,1.45,10.86,3.15,15.9,1.18,4.31-1.7,7.17-5.7,10.31-9.11,11.97-13.01,31.32-18.7,48.42-14.24,12.31,3.21,24.09,11.26,36.63,9.07,21.34-3.74,26.31-31.4,38.14-49.55,14.87-22.79,45.55-31.07,72.01-24.27,5.66,1.45,11.12,3.59,16.19,6.42,3.49,1.95,6.79,4.15,9.9,6.58,10.95,8.54,19.57,19.86,25.68,32.55,6.51,13.52,10.19,28.59,10.86,43.54,15.46-11.06,35.66-14.09,54.15-9.94,14.11,3.16,27.22,10.51,36.48,21.67,6.79-6.36,15.83-6.77,24.79-3.99v85.7c1.46.5,2.36,1.26,2.15,2.4l.71.16Z"/>
    <g>
      <path class="cls-50" d="m813,44.04v70.24c-19.64,1.58-41.83,2.47-65.31,2.47-3.74,0-7.44-.02-11.11-.07-17.69-.21-34.49-.93-49.86-2.07-43.32-3.22-75.17-9.75-82.93-17.58-1.21-1.21-1.84-2.45-1.84-3.73,0-.31.04-.61.13-.91h0c-.09-.42-.13-.83-.13-1.24,0-7.22,13.18-13.32,31.36-15.39-.03-.25-.04-.49-.04-.74,0-2.05.58-4.05,1.68-5.96,6.45-11.27,30.77-19.65,59.8-19.65,4.87,0,9.61.24,14.15.68,1.63-4.55,5.14-8.73,10.09-12.28,10-7.2,25.84-11.85,43.67-11.85,22.56,0,41.95,7.44,50.34,18.08Z"/>
      <path class="cls-23" d="m813,83.67v30.61c-19.64,1.58-41.83,2.47-65.31,2.47-3.74,0-7.44-.02-11.11-.07-17.69-.21-34.49-.93-49.86-2.07-43.32-3.22-75.17-9.75-82.93-17.58,8.39-4.5,19.02-7.65,23.51-8.82,8.49-2.24,17.2-3.67,25.9-5.01,2.61-.4,5.22-.8,7.84-1.14,4.71-.62,9.44-1.08,14.2-1.06,21.62.13,41.85,10.13,62.92,14.26,5.15,1.01,10.35,1.67,15.64,1.75,19.45.29,37.87-7.3,56.48-12.59.9-.26,1.81-.51,2.72-.75Z"/>
    </g>
    <g>
      <polygon class="cls-32" points="295.24 55.04 292.73 58.67 295.24 63.97 297.7 58.61 295.24 55.04"/>
      <polygon class="cls-67" points="240.26 57.56 237.75 61.19 240.26 66.49 242.72 61.13 240.26 57.56"/>
      <polygon class="cls-32" points="97.89 118.83 96.07 121.46 97.89 125.32 99.68 121.42 97.89 118.83"/>
      <polygon class="cls-22" points="76.38 123.73 73.87 127.35 76.38 132.65 78.83 127.29 76.38 123.73"/>
      <polygon class="cls-32" points="219.93 89.98 218.2 92.48 219.93 96.14 221.63 92.44 219.93 89.98"/>
      <polygon class="cls-67" points="506.13 25.96 503.62 29.59 506.13 34.89 508.58 29.53 506.13 25.96"/>
      <polygon class="cls-22" points="781.05 20.25 779.78 22.09 781.05 24.77 782.29 22.06 781.05 20.25"/>
      <polygon class="cls-22" points="255.25 106.41 253.31 109.2 255.25 113.28 257.14 109.15 255.25 106.41"/>
      <polygon class="cls-67" points="325.45 109.9 323.75 112.35 325.45 115.92 327.1 112.31 325.45 109.9"/>
      <polygon class="cls-32" points="318.59 128.19 316.08 131.82 318.59 137.12 321.05 131.76 318.59 128.19"/>
      <polygon class="cls-22" points="295.23 143.95 293.73 146.13 295.23 149.31 296.71 146.09 295.23 143.95"/>
      <polygon class="cls-67" points="364.35 105.44 361.84 109.06 364.35 114.36 366.8 109 364.35 105.44"/>
      <polygon class="cls-67" points="412.73 15.79 411.12 18.11 412.73 21.5 414.29 18.07 412.73 15.79"/>
      <polygon class="cls-32" points="421.17 62.28 419.5 64.7 421.17 68.24 422.81 64.66 421.17 62.28"/>
      <polygon class="cls-22" points="426.14 55.04 423.63 58.67 426.14 63.97 428.6 58.61 426.14 55.04"/>
      <polygon class="cls-22" points="410.25 89.98 407.74 93.6 410.25 98.9 412.71 93.54 410.25 89.98"/>
      <polygon class="cls-22" points="386.13 22.86 384.35 25.43 386.13 29.18 387.86 25.39 386.13 22.86"/>
      <polygon class="cls-22" points="370.23 6.86 367.72 10.49 370.23 15.79 372.69 10.43 370.23 6.86"/>
      <polygon class="cls-22" points="446.7 46.11 444.19 49.74 446.7 55.04 449.15 49.68 446.7 46.11"/>
      <polygon class="cls-22" points="456.33 85.51 453.82 89.14 456.33 94.44 458.79 89.08 456.33 85.51"/>
      <polygon class="cls-32" points="480.81 27.33 479.56 29.14 480.81 31.79 482.04 29.11 480.81 27.33"/>
      <polygon class="cls-67" points="728.2 9.47 725.69 13.1 728.2 18.4 730.65 13.04 728.2 9.47"/>
      <polygon class="cls-32" points="784.78 132.65 782.27 136.28 784.78 141.58 787.23 136.22 784.78 132.65"/>
      <polygon class="cls-67" points="466.1 11.33 463.59 14.95 466.1 20.25 468.55 14.89 466.1 11.33"/>
      <polygon class="cls-22" points="483.3 9.76 481.6 12.21 483.3 15.79 484.96 12.17 483.3 9.76"/>
      <polygon class="cls-22" points="297.73 109.9 295.22 113.53 297.73 118.83 300.18 113.47 297.73 109.9"/>
      <polygon class="cls-67" points="291.51 18.4 290.26 20.21 291.51 22.86 292.74 20.18 291.51 18.4"/>
      <polygon class="cls-22" points="300.21 30.42 297.7 34.05 300.21 39.35 302.66 33.99 300.21 30.42"/>
      <polygon class="cls-22" points="281.84 79.19 280.33 81.37 281.84 84.55 283.31 81.34 281.84 79.19"/>
      <polygon class="cls-32" points="287.8 82.75 285.29 86.38 287.8 91.68 290.26 86.32 287.8 82.75"/>
      <polygon class="cls-22" points="335.8 25.12 334.3 27.28 335.8 30.42 337.25 27.24 335.8 25.12"/>
    </g>
    <g class="cls-4">
      <polygon class="cls-32" points="295.29 54.98 292.78 58.61 295.29 63.91 297.74 58.55 295.29 54.98"/>
      <polygon class="cls-67" points="240.31 57.5 237.8 61.13 240.31 66.43 242.76 61.07 240.31 57.5"/>
      <polygon class="cls-32" points="97.94 118.77 96.11 121.4 97.94 125.26 99.72 121.36 97.94 118.77"/>
      <polygon class="cls-22" points="76.43 123.67 73.92 127.29 76.43 132.6 78.88 127.24 76.43 123.67"/>
      <polygon class="cls-32" points="219.98 89.92 218.24 92.42 219.98 96.09 221.67 92.38 219.98 89.92"/>
      <polygon class="cls-67" points="506.18 25.9 503.67 29.53 506.18 34.83 508.63 29.47 506.18 25.9"/>
      <polygon class="cls-22" points="781.1 20.2 779.83 22.03 781.1 24.71 782.34 22 781.1 20.2"/>
      <polygon class="cls-22" points="255.29 106.35 253.36 109.14 255.29 113.22 257.18 109.1 255.29 106.35"/>
      <polygon class="cls-67" points="325.49 109.84 323.8 112.29 325.49 115.86 327.15 112.25 325.49 109.84"/>
      <polygon class="cls-32" points="318.64 128.13 316.13 131.76 318.64 137.06 321.09 131.7 318.64 128.13"/>
      <polygon class="cls-22" points="295.28 143.89 293.77 146.07 295.28 149.25 296.75 146.03 295.28 143.89"/>
      <polygon class="cls-67" points="364.4 105.38 361.89 109 364.4 114.3 366.85 108.94 364.4 105.38"/>
      <polygon class="cls-67" points="412.77 15.73 411.17 18.05 412.77 21.44 414.34 18.01 412.77 15.73"/>
      <polygon class="cls-32" points="421.22 62.23 419.54 64.64 421.22 68.18 422.85 64.6 421.22 62.23"/>
      <polygon class="cls-22" points="426.19 54.98 423.68 58.61 426.19 63.91 428.64 58.55 426.19 54.98"/>
      <polygon class="cls-22" points="410.3 89.92 407.79 93.54 410.3 98.84 412.75 93.48 410.3 89.92"/>
      <polygon class="cls-22" points="386.17 22.8 384.39 25.37 386.17 29.12 387.91 25.33 386.17 22.8"/>
      <polygon class="cls-22" points="370.28 6.81 367.77 10.43 370.28 15.73 372.73 10.37 370.28 6.81"/>
      <polygon class="cls-22" points="446.74 46.06 444.23 49.68 446.74 54.98 449.2 49.62 446.74 46.06"/>
      <polygon class="cls-22" points="456.38 85.45 453.87 89.08 456.38 94.38 458.83 89.02 456.38 85.45"/>
      <polygon class="cls-32" points="480.86 27.27 479.6 29.08 480.86 31.73 482.08 29.05 480.86 27.27"/>
      <polygon class="cls-67" points="728.24 9.41 725.73 13.04 728.24 18.34 730.7 12.98 728.24 9.41"/>
      <polygon class="cls-32" points="784.82 132.6 782.31 136.22 784.82 141.52 787.27 136.16 784.82 132.6"/>
      <polygon class="cls-67" points="466.14 11.27 463.63 14.9 466.14 20.2 468.6 14.84 466.14 11.27"/>
      <polygon class="cls-22" points="483.34 9.7 481.65 12.15 483.34 15.73 485 12.11 483.34 9.7"/>
      <polygon class="cls-22" points="297.77 109.84 295.26 113.47 297.77 118.77 300.22 113.41 297.77 109.84"/>
      <polygon class="cls-67" points="291.56 18.34 290.3 20.15 291.56 22.8 292.78 20.12 291.56 18.34"/>
      <polygon class="cls-22" points="300.25 30.37 297.74 33.99 300.25 39.29 302.7 33.93 300.25 30.37"/>
      <polygon class="cls-22" points="281.88 79.14 280.37 81.31 281.88 84.5 283.35 81.28 281.88 79.14"/>
      <polygon class="cls-32" points="287.85 82.69 285.34 86.32 287.85 91.62 290.3 86.26 287.85 82.69"/>
      <polygon class="cls-22" points="335.84 25.06 334.35 27.22 335.84 30.37 337.3 27.18 335.84 25.06"/>
    </g>
    <path class="cls-56" d="m814.93,415.14c-.5.95-1.13,1.81-1.93,2.5v-2.93c.65.14,1.29.28,1.93.43Z"/>
    <path class="cls-71" d="m815.86,254.15h-.75c-.11.47-.41,1-.91,1.59-.19.22-.61.44-1.2.65v-4.8c1.46.5,2.36,1.26,2.15,2.4l.71.16Z"/>
    <path class="cls-60" d="m21,297.91v3.86c-.88-.09-1.75-.18-2.62-.27.84-1.19,1.71-2.39,2.62-3.59Z"/>
  </g>
  <g id="Mountains">
    <rect class="cls-15" x="26.1" y="260.41" width="786.9" height="98.87"/>
    <rect class="cls-49" x="239.25" y="275.68" width="45" height="55.93"/>
    <polygon class="cls-29" points="111.81 281.95 145.77 261.32 179.2 283.52 111.81 281.95"/>
    <polygon class="cls-53" points="187.55 281.95 219.16 256.88 270.34 275.68 187.55 281.95"/>
    <polygon class="cls-16" points="145.77 261.32 156.21 238.86 108.4 278.22 111.81 281.95 145.77 261.32"/>
    <polygon class="cls-69" points="179.2 283.52 187.55 281.95 195.01 276.04 187.1 276.49 156.21 238.86 145.77 261.32 179.2 283.52"/>
    <polygon class="cls-16" points="172.71 258.96 228.95 212.75 219.16 256.88 195.01 276.04 187.1 276.49 172.71 258.96"/>
    <polygon class="cls-29" points="325.95 270.9 289.56 251.6 266.32 265.98 270.34 275.68 325.95 270.9"/>
    <polygon class="cls-69" points="228.95 212.75 266.32 265.98 270.34 275.68 219.16 256.88 228.95 212.75"/>
    <polygon class="cls-27" points="289.56 251.6 294.48 240.16 259.33 256.02 266.32 265.98 289.56 251.6"/>
    <polygon class="cls-41" points="325.95 270.9 383.8 270.1 398.8 253.07 352.57 255.84 294.48 240.16 289.56 251.6 325.95 270.9"/>
    <g>
      <polygon class="cls-27" points="593.42 242.16 624.13 221.55 608.77 248.83 598.54 256.99 593.42 242.16"/>
      <polygon class="cls-69" points="626.68 261.35 608.77 248.83 624.13 221.55 655.93 234.08 626.68 261.35"/>
      <polygon class="cls-29" points="598.54 256.99 606.58 268.13 625.1 268.13 626.68 261.35 608.77 248.83 598.54 256.99"/>
      <polygon class="cls-16" points="655.93 234.08 697.09 216.2 683.93 246.87 625.1 268.13 626.68 261.35 655.93 234.08"/>
      <polygon class="cls-53" points="742.34 265.13 675.55 266.38 632.35 265.51 683.93 246.87 742.34 265.13"/>
      <polygon class="cls-27" points="742.34 265.13 790.48 248.26 697.09 216.2 742.34 265.13"/>
      <path class="cls-69" d="m815.15,253.99l-2.15-.5-10.85-2.52-11.67-2.71-11.74-4.03,30.36-17.17,3.9-2.21v26.74c1.46.5,2.36,1.26,2.15,2.4Z"/>
      <polygon class="cls-41" points="815.86 254.15 782.27 254.15 790.48 248.26 802.15 250.97 813 253.49 815.15 253.99 815.86 254.15"/>
      <polygon class="cls-16" points="782.27 254.15 790.48 248.26 767.21 256.62 782.27 254.15"/>
      <polygon class="cls-41" points="697.09 216.2 683.93 246.87 742.34 265.13 697.09 216.2"/>
    </g>
    <path class="cls-36" d="m729.6,328.57c-.43.08-.86.14-1.29.2.17-.27.36-.54.57-.81.24.2.48.4.72.61Z"/>
    <path class="cls-18" d="m815.15,253.99s-.02.11-.04.16c-.11.47-.41,1-.91,1.59-.19.22-.61.44-1.2.65-4.07,1.49-16.33,2.86-18.53,3.35-1.09.24-2.18.47-3.27.67-15.01,2.82-30.47,2.02-45.63,3.59h-.02c-1.03.11-2.07.23-3.1.36-.24.03-.49.06-.73.1-.37.04-.72.09-1.08.14h-.01c-1.57.21-3.14.42-4.7.65-32.24,4.64-62.8,12.42-95.78,7.34-6.64-1.02-13.24-2.41-19.95-2.69-2.84-.12-5.65-.14-8.44-.09-23.75.49-45.44,7-68.69,12.48-5.09,1.2-10.21,2.17-15.33,2.95-1.81.27-3.63.52-5.44.74h-.01c-4.31.54-8.62.94-12.94,1.22-5.11.34-10.23.51-15.36.55h-.01c-.22,0-.44.01-.66,0-3.78.03-7.57-.03-11.37-.15-23.48-.72-47.15-3.82-70.86-6.73-2.49-.31-4.97-.61-7.46-.91-7.4-.88-14.8-1.73-22.2-2.44-8.5-.83-17-1.49-25.5-1.87h-.02c-4.88-.22-9.76-.35-14.63-.36-15.64-.03-31.25,1.12-46.84,2.28-3.4.25-6.79.5-10.19.76-15,1.11-30,2.22-45,3.34-7.06.52-14.11,1.05-21.17,1.57-17.28,1.29-34.57,2.57-51.85,3.85-1.65.12-3.31.26-4.98.42h-.02c-15.95,1.52-33,4.38-48.63,3.24-3.2-6.76,14.56-7.88,26.98-8.15h.13c3.22-.07,6.05-.08,8.07-.12h.03c.9-.02,1.64-.04,2.17-.08,8.35-.55,16.69-1.1,25.04-1.65h.01c5.11-.34,10.2-.68,15.31-1.02h0c2.85-.18,5.7-.37,8.55-.56,13.45-.89,26.9-1.78,40.35-2.66,4.17-.28,8.33-.55,12.5-.83,5.25-.35,10.51-.69,15.76-1.04.78-.05,1.55-.1,2.33-.15h0c8.96-.6,17.92-1.19,26.88-1.78,9.69-.64,19.38-1.28,29.07-1.89,14.54-.91,29.09-1.74,43.64-2.39,4.17-.18,8.33-.35,12.5-.5h.01c1.29-.05,2.58-.1,3.88-.14h.01c7.35-.25,14.71-.44,22.07-.55,3.83-.06,7.67-.1,11.5-.11,3.94-.03,7.89-.02,11.83.01.56,0,1.12,0,1.67.02.92,0,1.84.01,2.75.03,0,0,.01-.01.01,0,.04-.01.06-.01.1,0,1.96.02,3.9.05,5.86.1h.01c3.38.05,6.76.14,10.14.25h.08c.4.02.79.03,1.19.04h.01c.29.01.56.02.85.03,1.89.06,3.79.11,5.69.13,9.51.1,19.09-.55,27.26-4.85.48-.26.95-.52,1.42-.81.28-.16.56-.33.83-.5.6-.38,1.19-.78,1.79-1.17,1.82-1.19,3.69-2.3,5.82-2.4,1.62-.08,3.06.41,4.38,1.23.56.33,1.09.73,1.61,1.17,2.11,1.79,3.97,4.24,5.92,6.2,3.78,3.79,8.98,6.05,14.31,6.45,2.83.23,5.71-.07,8.42-.95,3.5-1.13,6.69-3.11,10.2-4.2,5.34-1.66,11.08-1.17,16.65-.72,16.2,1.31,32.14,1.2,48.16.65,1.62-.05,3.25-.11,4.88-.17,4.68-.18,9.38-.39,14.1-.6,1.02-.04,2.02-.09,3.04-.13h.01c1.93-.09,3.85-.18,5.78-.26,23.64-1.02,47.88.72,71.47-.86h.07s.06,0,.09-.01c3.03-.2,6.03-.46,9.03-.79,6.53-.71,13.06-1.5,19.57-2.37,1.67-.21,3.34-.44,5.01-.68,3.59-.49,7.19-1.01,10.78-1.56,3.42-.52,6.84-1.06,10.25-1.63h.02c8.55-1.4,17.07-2.95,25.57-4.63,4.74-.93,9.48-1.91,14.2-2.93.41-.09,1.07-.18,1.91-.25,2.95-.27,7.98-.35,10.85.62,1.46.5,2.36,1.26,2.15,2.4Z"/>
    <path class="cls-33" d="m729.6,328.57c-.43.08-.86.14-1.29.2.17-.27.36-.54.57-.81.24.2.48.4.72.61Z"/>
    <path class="cls-13" d="m813,277.01v96.34c-8.4,4.65-17.47,8.2-26.64,10.64-19.81,5.28-40.34,6.3-60.91,6.74-8.22.17-16.44.26-24.63.48-13.63.38-27.27,1.16-40.9,1.88-25.23,1.32-50.45,2.4-75.58.22-23.98-2.08-47.63-7.12-71.33-11.5-3.36-.62-6.73-1.23-10.09-1.81-1.32-.23-2.63-.45-3.94-.67-6.26-1.05-12.52-2-18.8-2.79h-.02c-.46-.06-.91-.12-1.37-.17-1.59-.2-3.17-.38-4.76-.55h-.01c-.36-.05-.73-.08-1.09-.12-2.26-.24-4.52-.45-6.78-.63-4.78-.39-9.57-.66-14.38-.78-.79-.02-1.59-.04-2.38-.04-.61-.01-1.22-.02-1.83-.02-4.03-.04-8.05.04-12.06.2-.7.02-1.39.05-2.09.09-4.07.18-8.14.45-12.21.79-6.94.58-13.87,1.35-20.8,2.24-.01-.01-.01,0-.01,0-1.39.18-2.77.36-4.15.54h-.02c-.19.03-.35.05-.53.08h-.01c-11.63,1.56-23.22,3.39-34.81,5.09-16.49,2.42-33.01,4.58-49.57,6.47-.08.01-.15.02-.23.03h-.01c-.4.05-.81.09-1.22.14-1.88.22-3.77.43-5.66.63-1.53.17-3.06.34-4.59.5-8.3.89-16.61,1.72-24.92,2.47h-.01c-1.61.15-3.21.3-4.82.44-2.06.18-4.11.36-6.17.53-16.28,1.38-32.58,2.5-48.89,3.37-.59.03-1.17.06-1.76.1-4.63.24-9.26.46-13.9.66h-.01c-4.24.19-8.48.36-12.72.5h-.01c-9.95.36-19.9.63-29.85.79h-.02c-.47,0-.95.02-1.42.03-.65.01-1.3.02-1.95.04-30.24.56-62.69,2.95-91.93-4.2-7.28-1.78-14.49-1.73-21.52-2.88-4.33-.69-8.6-1.85-12.77-4.17-.41-.23-.81-.47-1.22-.72-1.64-1.01-3.21-2.13-4.7-3.35v-82.87c-.88-.09-1.75-.18-2.62-.27.84-1.19,1.71-2.39,2.62-3.59,1.6-2.11,3.3-4.2,5.1-6.24,4.41-5.03,9.36-9.71,14.65-13.41-.11-1.27-.16-2.55-.16-3.85,0-3.72.44-7.33,1.28-10.79.26-1.08.56-2.15.9-3.21,3.78-11.81,12.22-21.54,23.16-27.02,4.05-2.04,8.44-3.48,13.06-4.23,2.43-.4,4.92-.61,7.46-.61,17.89,0,33.39,10.25,40.94,25.19,1.08,2.12,1.99,4.32,2.72,6.61.01.02.02.04.02.06.95,2.96,1.61,6.05,1.93,9.24.17,1.57.25,3.15.25,4.76,0,2.13-.14,4.22-.43,6.27,5.65.02,11,.66,15.9,1.8h.03c.46.1.93.22,1.38.34,4.53,1.16,8.61,2.76,12.04,4.69h.02c7.09,4.03,11.46,9.44,11.46,15.43,0,.33-.01.66-.04.99,3.08-.65,6.32-.99,9.66-.99,11.79,0,22.28,4.24,29.02,10.83,4.9,4.78,7.81,10.8,7.81,17.34,0,1.67-.19,3.31-.56,4.9,6.07-2.49,13.06-4.37,20.65-5.48,5.13-.76,10.53-1.16,16.11-1.16,7.85,0,15.36.8,22.24,2.25.24.05.49.1.73.15,0-.05,0-.1.01-.15.13-5.37,2.28-10.38,5.91-14.66.35-.41.71-.82,1.09-1.22,7.31-7.73,19.62-12.8,33.58-12.8,6.26,0,12.2,1.02,17.49,2.84,1.54-11.94,8.77-22.56,19.5-30.13h.02c2.79-1.99,5.8-3.76,9.03-5.29,1.45-.7,2.95-1.34,4.48-1.93,3.6-1.4,7.4-2.51,11.36-3.31-.06-.35-.11-.69-.16-1.04-.18-1.21-.32-2.44-.43-3.67-.19-2.04-.29-4.12-.3-6.21v-.34c0-25.62,13.51-48.08,33.79-60.66h.01c.25-.15.49-.3.74-.46h.01c10.74-6.47,23.32-10.2,36.78-10.2,23.06,0,43.57,10.94,56.6,27.92,11.09-6.56,26.12-9.47,42-7.1,24.46,3.65,43.32,18.71,47.54,36.14.74,3.06,1.03,6.19.82,9.35,1.88,1.13,3.64,2.56,5.23,4.24,1.96,2.08,3.68,4.55,5.08,7.32,1.13,2.24,2.06,4.67,2.74,7.26.04.15.08.3.12.46.14.55.27,1.11.39,1.68.55,2.7.85,5.53.85,8.46,0,6.74-1.57,13-4.26,18.18.54.52,1.08,1.03,1.63,1.55,6.94-8.62,20.57-14.48,36.25-14.48,14.84,0,27.84,5.25,35.07,13.12,2.83,3.07,4.77,6.55,5.6,10.27.3,1.33.45,2.69.45,4.07s-.14,2.59-.4,3.85c1.81,1.04,3.39,2.47,4.6,4.28.63.95,1.13,1.95,1.49,2.99,5.28-1.92,11.57-2.57,18.14-1.59,6.98,1.04,13.12,3.76,17.7,7.45-.21.27-.4.54-.57.81.43-.06.86-.12,1.29-.2-.24-.21-.48-.41-.72-.61,3.46-4.58,10.18-7.69,17.91-7.69.73,0,1.45.03,2.16.09,1.14-8.94,8.23-16.62,18.37-20.9h.01c5.48-2.33,11.85-3.66,18.65-3.66,1.95,0,3.87.11,5.73.32,3-9.71,11.17-17.16,21.29-19.11Z"/>
    <path class="cls-20" d="m813,313.22v90.46c-9.12,3.17-18.56,5.25-28.21,6.55-25.06,3.4-51.5,1.62-77.17.54-1.01-.04-2.02-.09-3.04-.12h-.02c-.99-.05-1.99-.08-2.98-.12-25.81-.94-51.61-.5-77.39.73h-.01c-47.78,2.27-95.49,7.25-143.21,11.16-3.5.29-7,.57-10.5.84-.53.04-1.05.08-1.58.12-1.19.1-2.38.19-3.57.27-3.99.31-7.99.61-11.99.89-5.97.43-11.95.83-17.93,1.22-40.69,2.63-81.42,4.35-122.19,5.35-5.42.14-10.84.26-16.26.37-1.06.03-2.13.05-3.19.07h-.01c-.59.01-1.16.02-1.74.03-2.07.04-4.13.08-6.2.12h-.01c-.36,0-.71,0-1.06,0-6.35.11-12.69.2-19.03.28-8.5.1-17,.18-25.5.23-9.59.06-19.17.08-28.75.08-12.36,0-24.72-.06-37.08-.16h-.02c-6.76-.04-13.53-.11-20.29-.19h-.01c-17.75-.2-35.49-.48-53.23-.82h-.03c-1.32-.03-2.63-.05-3.95-.08-3.55-.07-7.11-.14-10.66-.22-.46,0-.91-.02-1.37-.03-1.59-.03-3.17-.07-4.76-.1-6.81-.15-13.71-.32-20.53-.86-9.66-.77-19.2-2.25-28.24-5.44-1.84-.64-3.66-1.36-5.45-2.15-1.67-.74-3.28-1.53-4.84-2.38v-70.84c1.65-1.97,3.35-3.9,5.1-5.78,8.36-9.03,17.77-16.99,28.71-22.88,26.81-14.43,65.69-11.26,81.31,14.87,5.96,9.95,11.54,24.41,23.06,23.01,9.45-1.15,14.48-13.32,23.9-14.71,10.41-1.54,17.07,10.41,26.27,15.74,1.52.89,3.1,1.59,4.79,2.02,5.01,1.28,10.04,0,15.04-2.02,9.76-3.92,19.4-10.64,28.64-6.55,3.56,1.58,6.38,4.63,10.08,5.87,8.91,2.98,17.38-5.6,21.83-13.87,4.46-8.27,8.73-18.19,17.75-20.83,16-4.68,31.22,17.86,46.85,12.09,8.73-3.21,13.13-14.17,20.25-19.35,2.05-1.49,4.32-2.5,6.99-2.71,4.98-.39,10.34,2.33,14.77.01,1.01-.52,1.83-1.23,2.52-2.08.67-.81,1.21-1.74,1.67-2.74.8-1.71,1.36-3.61,1.86-5.41,1.19-4.2,2.56-8.4,4.15-12.52.1-.24.19-.49.29-.73h0c1.28-3.27,2.69-6.47,4.26-9.59,1.76-3.54,3.72-6.97,5.87-10.24.21-.31.41-.62.63-.93.58-.87,1.19-1.73,1.82-2.57.21-.3.43-.59.65-.88,1.35-1.79,2.77-3.52,4.26-5.17.21-.23.41-.45.63-.67,3.98-4.3,8.48-8.1,13.54-11.2.74-.45,1.48-.88,2.24-1.29,1.62-.89,3.27-1.68,4.96-2.36,2.24-.94,4.54-1.7,6.88-2.3.12-.04.25-.07.38-.09,13.91-3.52,29.17-1.52,42.35,4.68t.02,0s.01.01.02.01c2.46,1.15,4.81,2.46,7.1,3.9,3.96,2.49,7.63,5.38,10.91,8.65,3.77,3.75,7.03,7.99,9.59,12.65,1.69,3.06,3.07,6.31,4.11,9.72.25.82.48,1.64.69,2.46.24.91.46,1.81.66,2.73,1.91,8.69,2.34,17.74,3.58,26.57.75,5.39,1.8,10.7,3.67,15.81,9.78-18.81,41.33-19.88,52.36-1.78,1.6,2.62,2.86,5.56,5.21,7.53,11.48,9.64,33.07-12.37,41.94-.28,4.6,6.27,1.55,18.6,9.18,20.08,3.47.67,6.61-1.91,9.44-4.01,15.59-11.54,38.73-11.57,54.35-.06,3.02,2.23,6.18,4.89,9.41,7.45,2.27,1.8,4.57,3.56,6.88,5.08.31.2.62.4.93.6,2.16,1.36,4.33,2.51,6.49,3.28h0c.2.07.4.14.6.2,4.26,1.39,8.48,1.28,12.5-1.48,2.76-1.89,4.53-4.65,5.99-7.68,1.58-3.27,2.81-6.87,4.55-10.04,3.36-6.1,12.25-10.84,16.86-5.63-.44-13.25,13.17-22.37,25.71-26.72,4.74-1.65,9.81-2.92,14.94-3.67Z"/>
  </g>
  <g id="road">
    <path class="cls-59" d="m204.61,396.86c6.45-1.62,13.15-2.07,19.42-4.42,6.33-2.37,11.99-6.59,18.12-9.54,4.4-2.12,9.05-3.57,13.78-4.33,9.67-1.97,19.34-3.95,29.02-5.92,14.46-2.95,29.5-5.88,43.68-1.49,6.57,2.03,12.93,5.63,19.74,5.5,5.17-.1,10.11-2.35,15.22-3.26,14.05-2.48,27.91,5.34,42.11,6,4.2.2,8.46-.23,12.58.72,4.56,1.05,8.8,3.82,11.89,7.77.98,1.26,1.89,2.77,1.85,4.45-.07,2.8-2.62,4.57-4.87,5.73-19.36,9.97-40.56,14.24-61.5,18.42-10.01,2-20.09,4.01-30.26,3.97-7.94-.03-15.88-1.31-23.81-.69-7.45.58-14.72,2.83-22.11,4.04-33.42,5.49-67.12-10.28-100.79-7.19-5.37.49.32-10.63,1.25-11.76,3.7-4.49,9.52-6.72,14.66-8.01Z"/>
    <path class="cls-38" d="m625.93,350.38c.2-.17.47-.27.84-.31-.28.1-.56.2-.84.31Z"/>
    <path class="cls-38" d="m668.27,363.82c-.61.06-1.22.11-1.83.17.54-.59,1.32-.83,1.83-.17Z"/>
    <path class="cls-38" d="m779.58,370.6c.35-.21.71-.43,1.06-.64-.13.57-.53.98-1.06.64Z"/>
    <path class="cls-38" d="m785.28,367.15c-.42.26-.85.51-1.27.77.18-.62.71-1.09,1.27-.77Z"/>
    <path class="cls-38" d="m814.93,415.14c-.5.95-1.13,1.81-1.93,2.5-.28.26-.59.49-.92.7-2.56,1.62-5.83,1.4-8.84,1.14-47.65-4.02-95.47-2.27-143.21,1.28h-.01c-.35.03-.71.05-1.06.08h-.02c-14.68,1.09-29.35,2.35-44,3.67h-.01c-1.22.11-2.45.22-3.67.33-5.21.47-10.42.94-15.64,1.42-34.04,3.11-68.08,6.22-102.12,9.32-2.09.19-4.18.38-6.27.57-1.31.12-2.62.24-3.93.36-.55.05-1.11.1-1.66.15-.1.01-.19.02-.29.03-4.05.37-8.11.74-12.16,1.09-.89.08-1.76.15-2.65.23h0c-.65.05-1.3.11-1.96.16h-.03c-.17.02-.34.03-.52.05-2.97.24-5.94.48-8.91.69-.68.05-1.36.1-2.05.15-.75.05-1.5.11-2.26.16h-.01c-3.45.23-6.89.44-10.34.61-.5.03-.99.05-1.48.07-.8.04-1.59.08-2.38.11-2.59.11-5.17.2-7.76.27-12.96.32-25.93.03-38.89-.25-8.16-.18-16.33-.36-24.5-.55-11.64-.26-23.27-.51-34.91-.77-3.58-.08-7.14-.16-10.72-.24-.01.01-.02,0-.02,0-.56-.01-1.13-.02-1.7-.04h-.04c-2.33-.04-4.65-.1-6.99-.15-.81-.02-1.63-.03-2.45-.06h-.04c-1.48-.03-2.97-.06-4.46-.1h-.02c-2.52-.05-5.03-.1-7.55-.16h0c-3.1-.07-6.2-.14-9.3-.21-1.08-.02-2.17-.05-3.26-.07-3.3-.07-6.59-.15-9.89-.22-.85-.02-1.74-.1-2.65-.25-1.04.75-2.12,1.41-3.23,1.99-5.14,2.74-10.89,3.95-16.51,5.1-8.67,1.78-17.43,3.56-26.23,3.19-10.21-.43-20.12-3.75-29.87-7.37-1.26-.47-2.52-.94-3.77-1.41-5.81-2.19-11.63-4.38-17.44-6.57h-.02c-.42-.16-.85-.32-1.27-.48-3.21-1.21-6.5-2.43-9.88-2.31-.25.01-.5.03-.75.05-.22.02-.44.04-.66.08-.19.02-.37.05-.55.09-.06,0-.12,0-.19.03-.06.01-.12.02-.19.04-.38.07-.77.17-1.15.27-.19.05-.38.1-.57.16-.11.03-.22.06-.33.1-.23.07-.46.14-.68.22-.09.03-.18.06-.27.09-.3.1-.6.21-.9.33-.97.35-1.94.75-2.9,1.14h-.01c-.79.31-1.58.62-2.37.9-4.16,1.48-8.45,2.19-12.8,2.43-6.53.36-13.18-.33-19.72-1.03-7.47-.81-14.96-1.62-22.32-3.2-1.94-.41-3.86-.88-5.78-1.42-1.12-.32-2.26-.65-3.39-1-.02-.01-.03-.01-.04-.01-.12-.04-.25-.07-.37-.11-.11-.03-.21-.07-.32-.1-3.12-.93-6.27-1.87-9.4-2.39-4.09-.7-8.15-.7-12.05.86-2.04.82-3.96,2.05-5.97,2.96-.72.34-1.45.63-2.21.84-3.98,1.12-8.14.08-12.23.05-5.59-.03-11.06,1.86-16.19,4.4-2.51,1.25-5.24,2.66-7.9,3.01v-47.46c.36-.11.71-.2,1.04-.3.17-.05.33-.1.49-.15.16-.05.31-.1.46-.15,1.31-.45,2.63-.9,3.93-1.37,5.59-2,11.09-4.22,16.5-6.7,8.15-3.73,16.08-8.05,23.75-13.13-2.02,1.74-3.35,4.51-3.53,7.4,6.94-2.6,13.87-5.2,20.81-7.8-4,4.5-8.01,9.01-12.01,13.51,6.06-2.49,12.43-3.98,18.86-4.41-2.29,2.07-4.58,4.15-6.87,6.22,10.44-2.86,20.88-5.72,31.33-8.58-5.94,7.97-11.87,15.95-17.8,23.93,12.82-7.2,26.44-12.52,40.43-15.81-4.25,4.1-8.5,8.2-12.75,12.31,6.42-.51,12.72-2.92,18.13-6.93-1.42,2.4-2.85,4.8-4.27,7.2,5.75-.95,11.52-1.8,17.3-2.54-1.22,2.2-2.45,4.39-3.66,6.58-.3.53-.59,1.07-.89,1.6,1.43-.56,2.83-1.11,4.26-1.67h.02c5.38-2.09,10.77-4.19,16.15-6.29,1.87-.72,3.89-1.45,5.77-.77,1.46.54,2.58,1.84,3.73,2.98,1.29,1.28,2.7,2.38,4.2,3.29h.01c2.09,1.3,4.33,2.23,6.66,2.82,6.78,1.7,14.18.4,19.97-3.98.48-.35.94-.74,1.4-1.14.1.36.22.7.36,1.04,1.56,4.06,5.18,6.86,8.98,7.92,4.13,1.15,8.47.55,12.63-.41,1.77-.41,3.56-.88,5.36-.65,2,.27,3.83,1.41,5.72,2.25,2.25,1.01,4.58,1.58,6.95,1.89,3.09.42,6.26.37,9.45.23.17,0,.33-.01.49-.02,5.75-.26,11.56-.76,17.13.58.83.2,1.74.51,2.22,1.32.41.7.4,1.62.34,2.46-.1,1.6-.33,3.19-.66,4.75,10.19-1.65,20.96-1.44,31.43-2.13,1.36-.09,2.72-.19,4.07-.32,12.53-1.17,24.79-4.27,36.99-7.35,23.62-5.97,48.15-10.4,71.62-17.06h.01c1.36-.38,2.7-.77,4.05-1.18.89-.26,1.78-.53,2.66-.8t.01-.01c.29-.08.58-.17.87-.26,4.35-1.35,8.69-2.67,13.01-3.95,4.84-1.44,9.67-2.82,14.51-4.14,1.22-.33,2.46-.67,3.68-.99h.02c2.25-.6,4.51-1.18,6.77-1.73,1.92-.49,3.84-.95,5.76-1.4.44-.1.87-.2,1.31-.3h.02c2.94-.68,5.88-1.32,8.84-1.92,6.71-1.37,13.49-2.54,20.35-3.45,5.42-.73,10.9-1.29,16.45-1.67.32-.02.65-.04.97-.06h.01c10.8-.72,21.84-1.02,32.3-3.36,4.48-1.01,8.85-2.39,13.04-4.33-1.66,1.67-3.32,3.34-4.99,5.02.38-.1.77-.19,1.15-.3.39-.1.78-.21,1.16-.31,1.05-.29,2.11-.61,3.16-.95.26-.09.53-.17.8-.26.27-.08.53-.17.8-.27.3-.1.6-.2.9-.31,2.19-.77,4.34-1.63,6.46-2.58.57-.25,1.13-.51,1.7-.78.38-.17.76-.35,1.13-.54.39-.19.78-.38,1.17-.58.2-.1.4-.2.59-.31.19-.09.39-.19.58-.3.79-.42,1.58-.85,2.36-1.29.35-.2.71-.4,1.06-.61.5-.29,1-.59,1.5-.9.18-.1.35-.21.52-.32.51-.32,1.02-.64,1.53-.97.75-.49,1.49-.99,2.23-1.5-1.35,1.86-2.69,3.72-4.03,5.59-.49.67-.97,1.34-1.45,2.01,1.57-.67,3.13-1.34,4.7-2.01,7.23-3.1,14.48-6.2,21.72-9.29-2.41,2.1-4.83,4.2-7.24,6.3,5.43-1.97,10.85-3.94,16.28-5.91-1.46,1.1,1.45,4.71,4.16,5.12,8.59,1.26,17.18,2.52,25.76,3.78,3.5.51,6.99,1.03,10.49,1.54-2.44,1.29-4.89,2.58-7.33,3.87,2.48-.23,4.95-.47,7.43-.7-.56.62-.87,1.61-.36,2.32,1.01,1.4,3.05,1.39,4.76,1.23,1.94-.17,3.88-.35,5.82-.52,11.44-1.02,22.88-2.04,34.32-3.07-1.61,1.24-3.22,2.49-4.84,3.73.82-.08,1.64-.17,2.46-.26h.01c.82-.1,1.63-.19,2.45-.29,0,0,.02,0,.02-.01,4.78-.58,9.54-1.3,14.27-2.16,3.9-.7,7.78-1.5,11.64-2.39.33-.07.67-.15,1-.23-1.84,2.04-3.69,4.07-5.54,6.1-.91,1.01-1.83,2.02-2.75,3.03-.13.14-.26.29-.39.43,1.27.22,2.53.41,3.81.56,0,0,0,0,.01,0,.29.04.59.08.89.11h.01c9.26,1.01,18.72.35,27.75-1.97-1.34,1.73-2.68,3.46-4.02,5.18,6.69,1.29,13.95-.91,18.79-5.69.94-.94,2.09-2.06,3.37-1.73.68.17.86.98.72,1.6-.35.21-.71.43-1.06.64.53.34.93-.07,1.06-.64,1.12-.68,2.25-1.36,3.37-2.04-.14.44-.1.95.23,1.28.8.78,2.1.61,3.18.33,8.44-2.23,17.99-7.78,25.58-6.18v51.36c.65.14,1.29.28,1.93.43Z"/>
    <path class="cls-37" d="m195.59,440.12c-2.05-.17-4.1-.35-6.15-.52-9.63-.82-19.27-1.64-28.91-2.45-7.22-.61-14.43-1.22-21.64-1.87,4.35-.24,8.64-.95,12.8-2.43,3.81-1.35,7.53-3.35,11.52-3.5,3.38-.12,6.67,1.1,9.88,2.31,6.24,2.35,12.49,4.7,18.73,7.05,1.25.47,2.51.94,3.77,1.41Z"/>
    <path class="cls-37" d="m253.98,438.79c-3.79,5.3-11.52,5.29-18.01,4.74-13.46-1.14-26.92-2.27-40.38-3.41-1.26-.47-2.52-.94-3.77-1.41-5.81-2.19-11.63-4.38-17.44-6.57h-.02c-.42-.16-.85-.32-1.27-.48-3.21-1.21-6.5-2.43-9.88-2.31-.25.01-.5.03-.75.05-.22.02-.44.04-.66.08-.19.02-.37.05-.55.09-.06,0-.12,0-.19.03-.06.01-.12.02-.19.04-.38.07-.77.17-1.15.27-.19.05-.38.1-.57.16-.11.03-.22.06-.33.1-.23.07-.46.14-.68.22-.09.03-.18.06-.27.09-.3.1-.6.21-.9.33-.97.35-1.94.75-2.9,1.14h-.01c-.79.31-1.58.62-2.37.9-4.16,1.48-8.45,2.19-12.8,2.43-8.22-.74-16.44-1.54-24.64-2.45-4.48-.49-8.96-1.03-13.42-1.7h-.03c-4.1-.62-8.17-1.35-12.21-2.29-.3-.07-.61-.14-.91-.21-.02-.01-.03-.01-.04-.01-.13-.03-.25-.06-.38-.09-.11-.03-.22-.06-.33-.09-3.12-.76-6.25-1.61-9.38-2.42-8.76-2.26-17.58-4.16-26.38-2.6-3.56.63-7.93,1.55-10.2-1.26-.42-.51-.71-1.1-.92-1.72-.9-2.54-.64-5.74-2.78-7.33-2.94-2.17-8.61.2-9.95-3.21-.43-1.1-.08-2.34-.25-3.51-.39-2.7-3.32-4.21-6.07-4.6v-11.11c.36-.11.71-.2,1.04-.3.17-.05.33-.1.49-.15.16-.05.31-.1.46-.15,1.31-.45,2.63-.9,3.93-1.37,5.59-2,11.09-4.22,16.5-6.7-.03,1.08-.3,2.21-.73,3.16-1.14,2.5-3,4.82-3.01,7.56,0,.05,0,.1.01.15.07,3,2.48,5.56,5.24,6.74,2.81,1.2,5.96,1.28,9.01,1.4,9.83.39,19.62,1.39,29.32,3,2.17.36,4.42.79,6.16,2.13,1.05.82,1.85,1.94,2.94,2.71,2,1.42,4.62,1.47,7.07,1.47,12.09.02,24.18.03,36.27.04,2.2,0,4.49.02,6.47.99,1.58.77,2.85,2.09,4.49,2.72,3.69,1.42,7.68-1.08,11.62-1.22,4.66-.16,8.89,2.97,13.54,3.21,3.38.17,6.63-1.19,9.96-1.75,1.55-.26,3.1-.34,4.65-.28,3.83.13,7.66,1.07,11.39,2.18.72.21,1.44.44,2.15.66,13.7,4.3,27.15,9.42,40.24,15.34,3.52,1.58,7,3.23,10.47,4.93,1.1.54,2.2,1.09,3.3,1.64Z"/>
    <path class="cls-37" d="m643.78,378.67c1.28-1.96,2.57-3.91,3.85-5.86-6-2.95-13.52,4.67-19.4,1.48-1.37-.74-2.45-2.02-3.93-2.53-2.19-.75-4.53.37-6.79.92-7.32,1.79-14.95-2.63-22.4-1.51-7.21,1.09-13.54,7.26-20.73,6.07-2.08-.34-3.99-1.28-5.99-1.93-6.88-2.22-14.35-.86-21.45.52,3.67-3.01,7.76-6.37,12.16-9.75,4.48-1.01,8.85-2.39,13.04-4.33-1.66,1.67-3.32,3.34-4.99,5.02,10.29-2.56,20.1-7.02,28.8-13.08-1.83,2.53-3.66,5.06-5.48,7.6,8.8-3.77,17.61-7.54,26.42-11.3-2.41,2.1-4.83,4.2-7.24,6.3,5.43-1.97,10.85-3.94,16.28-5.91-1.46,1.1,1.45,4.71,4.16,5.12,12.09,1.77,24.17,3.55,36.25,5.32-2.44,1.29-4.89,2.58-7.33,3.87,2.48-.23,4.95-.47,7.43-.7-.56.62-.87,1.61-.36,2.32,1.01,1.4,3.05,1.39,4.76,1.23,1.94-.17,3.88-.35,5.82-.52-9.54,6.94-21.1,11.08-32.88,11.65Z"/>
    <path class="cls-37" d="m611.8,422.1c-.48,0-.5-.5,0,0h0Z"/>
    <path class="cls-37" d="m626.25,428.26c.66-.15,1.33-.3,1.99-.45-.19.62-1.16.66-1.99.45Z"/>
    <path class="cls-37" d="m701.97,404.65c7.12-.52,14.24-1.03,21.37-1.56-1.09,3.21-4.93,4.41-8.25,5.17-19.36,4.39-38.71,8.78-58.06,13.18h-.02c-10.47,2.37-20.95,4.75-31.41,7.13.03-.12.04-.27.01-.43-3.91-.32-7.79-1.05-11.54-2.2-.7-.21-1.4-.45-2.08-.75h-.01c-1.12-.49-2.13-1.13-2.87-2.08-.13-.17-.25-.3-.34-.39.21.01.54-.09.95-.45,9.37-8.1,19.77-15.02,30.86-20.55,9.31-4.65,19.08-8.29,28.49-12.74,14.02-6.63,27.5-15.13,41.27-22.51,0,0,.02,0,.02-.01,9.26-1.13,18.46-2.76,27.54-4.89-2.96,3.26-5.91,6.52-8.88,9.78,1.61.28,3.2.5,4.82.69-4.33,2.4-8.36,5.37-11.92,8.81,6.7-1.05,13.62-.68,20.17,1.11-14.27,8.6-29.29,14.26-44.57,20.72.27,1.77,2.67,2.1,4.46,1.96Z"/>
    <path class="cls-58" d="m814.93,415.14c-.5.95-1.13,1.81-1.93,2.5v68.67c-3.34.6-6.76.97-10.08,1.28-23.56,2.25-47.2,4.51-70.88,6.1-2.43.17-4.87.32-7.31.47-30.65,1.88-61.35,2.52-91.98.46h-.01c-3.21-.22-6.42-.46-9.63-.74-2.47-.21-4.94-.45-7.41-.7-.04,0-.09-.01-.13-.01-6.66-.68-12-.15-17.29.85-1,.19-2,.4-3.01.62-4.35.95-8.82,2.12-14.12,3.12-14.22,2.69-28.68,3.87-43.14,4.32-7.44.23-14.87.26-22.31.2-6.68-.07-13.35-.22-20.03-.38-1.81-.04-3.61-.09-5.42-.13-13.11-.32-26.21-.6-39.32-.32-10.73.23-21.33,1.27-31.92,2.47-5.58.63-11.14,1.3-16.72,1.91h0c-7.61.84-15.23,1.58-22.9,1.98-21.03,1.09-42.1.65-63.15-.04h-.01c-4-.12-7.99-.26-11.99-.4-5.44-.19-10.9-.38-16.36-.66-.54-.02-1.08-.05-1.62-.08h-.01c-1.39-.07-2.78-.15-4.17-.24-3.78-.23-7.55-.52-11.31-.89-9.87-.95-19.66-2.46-29.26-4.98-6.59-1.73-13.05-3.94-19.49-6.22h-.01c-10.2-3.63-20.34-7.45-30.86-9.91-1.54-.36-3.09-.69-4.64-.99-16.23-3.15-32.86-3.2-49.48-2.25h-.01c-.08,0-.15.01-.23.01-1.35.08-2.7.16-4.05.25-6.31.42-12.62.95-18.89,1.49-21.81,1.86-43.61,3.73-65.42,5.59-.94.08-1.87.16-2.81.24-1.69.15-3.37.29-5.06.44-2.13.18-4.25.36-6.38.54-.35.03-.7.06-1.05.09-4.01.35-8.17.66-12.12.1v-58.18c3.12-2.84,6.57-5.27,10.29-7.32,2.78-1.53,5.71-2.85,8.76-3.96,11.3-4.13,24.27-5.44,37.54-4.48,22.52,1.64,44.96,7.56,67.4,5.04,8.93-1.01,17.82-3.35,26.78-2.69,14.06,1.03,26.41,9.21,39.69,13.99.47.17.94.33,1.41.49,12.23,4.15,24.94,5.05,37.81,4.36,5.35-.28,10.73-.84,16.11-1.55,6.01-.79,12.03-1.78,18.01-2.79,1.01-.17,2.02-.35,3.02-.53h.05c1.38-.23,2.76-.46,4.14-.7,1.19-.2,2.4-.4,3.59-.6h.02c.46-.08.93-.15,1.39-.23.64-.1,1.28-.21,1.92-.31,5.23-.84,10.46-1.59,15.7-2.27,39.78-5.14,79.9-5.79,120.14-5.34,6.18.06,12.37.15,18.56.26,3.97.07,7.95.14,11.92.22,1.21.02,2.43.04,3.64.07,4.07.08,8.14.16,12.21.23,41.11.79,82.23,1.37,123.11-1.89,2.28-.18,4.56-.38,6.85-.58,29.98-2.67,60.42-7.05,90.67-9.85h.03c1.96-.18,3.91-.36,5.86-.52,26.05-2.23,51.92-3.11,77.17-.54,9.5.96,18.91,2.42,28.21,4.48.65.14,1.29.28,1.93.43Z"/>
    <path class="cls-30" d="m264.14,443.06c-1.95.63-4.03.82-5.95,1.52-3.07,1.12-5.62,3.58-6.86,6.6-.18.44-.33.95-.12,1.37.19.39.64.59,1.06.73,3.71,1.18,7.69-.3,11.57-.57,8.09-.57,15.82,4.13,23.91,3.74,2.85-.14,5.63-.9,8.38-1.66,4.34-1.2,8.68-2.39,13.01-3.59,7.22-1.99,14.57-4.04,20.87-8.1,1.24-.8,2.58-2.32,1.77-3.55-.3-.46-.83-.71-1.35-.89-5.03-1.73-10.94,1.16-15.77-1.08-1.74-.8-3.17-2.22-4.98-2.83-1.57-.53-3.28-.42-4.94-.3-2.39.17-4.8.35-7.15.79-3.83.72-7.51,2.14-11.37,2.67-4.52.62-9.12-.09-13.63.58-3.64.54-5.06,3.47-8.44,4.57Z"/>
    <path class="cls-30" d="m440.91,440c-4.82.31-9.59.91-14.18,2.4-6.9,2.24-13.15,6.48-17.77,12.07-4.45,5.38-8.72,19.92,2.25,20.8,3.4.27,6.69-1.07,9.91-2.17,30.7-10.47,65.02-.37,96.55-7.99,4.05-.98,8.38-2.51,10.55-6.07,2.78-4.58.67-10.88-3.36-14.42s-9.45-4.96-14.69-6.12c-9.11-2.02-18.52-3.87-27.9-3.07s-18.67,3.49-28.25,4.02c-4.35.24-8.75.28-13.1.56Z"/>
  </g>
  <g id="Bee_and_Puppycat" data-name="Bee and Puppycat">
    <path class="cls-64" d="m269.84,369.86c-2.03,2.25-3.62,4.87-4.6,7.83-1.05,3.19-1.44,8.29.22,11.35.41.76.98,1.42,1.55,2.07.9,1.04,1.81,2.08,2.92,2.89,2.55,1.86,6.05,2.38,9.1,2.59,2.51.17,5.02.34,7.53.23,5.1-.22,10.15-1.62,14.64-4.04,5.49-2.95,9.22-11.09,7.35-17.1s-7.48-10.21-12.94-12.5c-3.38-1.42-7.74-2.76-11.35-1.81-5.46,1.43-10.67,4.32-14.42,8.48Z"/>
    <path class="cls-64" d="m320.78,411.93c-.08.29-.21.63-.5.69-.25.06-.49-.12-.74-.12-.6-.01-1.11.93-1.6.58-.23-.16-.27-.54-.53-.63-.42-.13-.58.54-.95.77-.28.17-.66.04-.88-.2-.22-.24-.31-.56-.4-.88-.2-.7-.32-1.53-.58-2.21-.06-.15-.16-.31-.29-.48-.37-.49-.93-1.01-1.01-1.44.11.63.02,1.27.04,1.91.09,2.32,1.33,4.78,1.68,7.11.16,1.1.29,2.2.25,3.3-.05,1.13-.45,2.24-.42,3.34.03,1.02.24,1.96.1,3.02-.26,1.93-1.1,3.8-2.4,5.26-1.68,1.88-.92,4.32-1.56,6.64,0,.03-.01.06-.02.09-.19.68-.43,1.46-.06,2.06.28.46.82.66,1.29.92.79.45,1.43,1.15,1.81,1.98.12.26.21.57.1.84-.11.25-.39.4-.65.5-1.15.47-2.43.52-3.67.55-3.55.08-7.11.02-10.65-.17-.27-.01-.56-.03-.79-.18-.34-.21-.48-.63-.54-1.03-.15-1.16.24-2.37-.04-3.5-.05-.22-.13-.43-.22-.64-.28-.64-.7-1.23-.96-1.89-1-2.51.53-5.28.44-7.98-.87.77-2.04,1.09-3.16,1.38-1.57.41-3.16.82-4.79.83-1.62.01-3.26-.35-4.46-1.44.57,3-.34,6.04-1.35,8.95-.09.24-.17.48-.26.72-.29.81-.58,1.63-1.06,2.34-.77,1.13-1.59,2.28-2.87,2.74-2.95,1.06-6.17.97-9.3.87-1.12-.03-3.4-.29-3.3-1.9.08-1.19,1.88-1.43,2.42-2.5.28-.54.16-1.2-.08-1.77-.02-.05-.04-.1-.06-.15-.29-.59-.7-1.14-.91-1.77-.14-.44-.19-.9-.32-1.34-.34-1.11-1.2-2-1.58-3.09-.67-1.93.25-4.06-.04-6.07-.14-.94-.53-1.82-.86-2.7-1.44-3.84-1.83-8.06-1.14-12.1.28-1.63.93-3.04.29-4.56.12-.02.03-.23-.09-.2-.11.04-.15.18-.17.3-.28,1.69-.57,3.38-.86,5.07h0c-.1.57-.19,1.13-.29,1.7-.13.77-.27,1.55-.63,2.24-.36.69-.99,1.28-1.76,1.39-.9.13-1.85-.51-2.07-1.39-.68.5-.5,1.75-1.26,2.15-.44.23-1.02.01-1.34-.37-.33-.39-.47-.89-.6-1.38-.33.44-.66.88-.99,1.32-.16.21-.44.46-.67.31-.09-.06-.13-.16-.18-.25-.87-2.01-.92-4.31-.44-6.45.04-.21.09-.42.15-.63.64-2.33,1.83-4.46,3.13-6.49,2.06-3.21,4.43-6.27,7.42-8.65.67-.54,1.14-.79,1.99-.92.86-.13,1.84.19,2.22.97.14.28.18.6.29.9.25.71.83,1.25,1.47,1.64,1.41.87,3.13,1.04,4.78,1.19,2.08.19,4.17.38,6.25.18,1.6-.16,3.17-.55,4.73-.94,2-.5,4-1,5.95-1.68,2.44-.85,4.78-1.97,7.11-3.09,4.04-1.94,8.31-4.07,12.34-6.01,1.36.95,2.73,1.91,4.09,2.86.89.62,1.79,1.25,2.55,2.02,2.5,2.54,3.75,6.05,4.09,9.67.25,2.7,0,5.45-.63,7.89Z"/>
    <path class="cls-12" d="m512.41,282.68c-1.75,6.91-14.98,11.01-25.05,12.88-6.32,1.18-6.65,3.61-7.49,9.27-1.1,7.36-7.3,13.54-13.57,17.32-6.66,4.01-14.82,4.89-22.54,3.98-7.72-.92-15.12-3.52-22.45-6.11-2.92-1.03-5.81-2.28-8.83-2.61-1.92-.21-3.85-.02-5.78-.34-3.76-.64-7.71-2.29-8.13-6.6-.3-3.03,1.46-5.89,1.66-8.93.19-2.86-1.01-5.66-2.72-7.95-1.72-2.3-3.92-4.17-6.05-6.08-4.67-4.21-13.04-9.5-10.85-16.43,2.29-7.22,8.08-10.37,12.12-15.72.55-.72,1.07-1.49,1.55-2.32,2.17-3.8,1.35-8.55-.15-12.93-.84-2.47-1.89-4.81-2.75-6.81-.57-1.35-1.13-2.73-1.35-4.18-.36-2.36.18-4.78,1.09-6.98,1.61-3.91,3.99-6.5,6.93-8.56,1.21-.87,2.51-1.63,3.9-2.37.89-.46,1.81-.92,2.76-1.38.97-.47,2.01-.92,2.9-1.53.21-.15.37-.32.5-.5.43-.62.49-1.42.71-2.2.29-1.08.6-2.15.94-3.21.66-2.11,1.42-4.18,2.36-6.18.18-.38.37-.76.57-1.16,1.52-2.98,3.62-6.22,6.33-8.2-2.46,1.89-4.26,4.99-5.43,7.7-.07.17-.15.35-.21.53-.35.87-.66,1.76-.97,2.65-.46,1.34-.93,2.74-1.06,4.13-.1.81-.08,1.63.12,2.43.07.27.16.55.33.77,1.18,1.58,2.39.98,3.95.62.94-.21,1.88-.4,2.82-.58,2.78-.54,5.55-1.08,8.31-1.69,2.46-.55,4.9-1.12,7.34-1.73,5.5-1.37,11.24-1.99,16.9-1.5,4.97.43,9.99,2.04,13.01,5.99.47.6.89,1.25,1.25,1.96.16.32.3.65.42.99.92,2.55.67,5.41.55,8.2,0,.04,0,.09,0,.13-.13,2.94-.07,5.81,1.67,8.19,2.25,3.05,6.56,1.88,9.54.87,4.47-1.52,8.88-.77,13.57.39,2.41.6,4.83,1.4,6.77,2.94,3.33,2.67,4.68,7.05,5.85,11.15.54,1.91.35,4.02-.12,6.23-1.27,5.97-4.55,12.61-.71,17.63.58.76,1.32,1.48,2.25,2.15,7.6,5.5,9.01,8.78,7.25,15.68Z"/>
    <path class="cls-39" d="m502.91,264.85c-1.45.15-2.95.09-4.4-.09-10.62-1.29-20.39-8.53-31.02-7.25-3.13.38-6.12,1.49-9.03,2.69-8.1,3.32-15.95,7.36-24.43,9.52-8.48,2.16-17.92,2.24-25.51-2.11-5.74-3.28-10.26-8.94-15.79-12.25.55-.72,1.07-1.49,1.55-2.32,2.17-3.8,1.35-8.55-.15-12.93,2.38-.92,5.11-1.12,7.66-.77,4.27.58,8.26,2.43,12.33,3.87,8.3,2.93,17.12,4.18,25.91,4.67,3.94.22,7.94.28,11.78-.62,4.91-1.14,9.41-3.82,14.4-4.44,7.07-.87,13.87,2.48,20.82,4.04,5.43,1.22,11.11,1.33,16.59.36-1.27,5.97-4.55,12.61-.71,17.63Z"/>
    <path class="cls-70" d="m455.22,264.85c-.41,4.25-7.13,6.44-12.3,8.39-5.18,1.96-7.19-2.76-7.13-5.17.03-1.2-.26-3.67-.56-5.84-.31-2.2-.62-4.1-.62-4.1-.65-4.42,17.91-17.86,17.91-17.86,0,0,.23,1.48.55,3.72.87,6.07,2.44,17.76,2.15,20.86Z"/>
    <path class="cls-21" d="m453.07,243.99c2.19,9.49-14.63,17.02-17.84,18.24-.31-2.2-.62-4.1-.62-4.1-.65-4.42,17.91-17.86,17.91-17.86,0,0,.23,1.48.55,3.72Z"/>
    <path class="cls-70" d="m412.91,214.39c-2.25,2.22-7.7,11.82-7.81,15.48s3.24,7.14,2.81,9.43-1.97,12.38-.91,15.05,3.87,6.61,6.33,6.75,10.87.98,18.01-1.55,21.03-12.31,21.18-14.91-.07-3.31,0-4.36,2.04.32,3.1-.49,5.66-3.03,6.75-8.79,1.48-8.62-.91-8.93-5.38-.53-7.39,2.18-2.04,4.26-3.38,5.42-1.9,2.6-4.22,1.55-3.9-10.31-3.38-11.61c0,0-4.12,3.24-6.05,1.97,0,0-8.72-5.28-9.92-8.51,0,0-9.43,8.79-11.82,5.07l-2.39-3.73Z"/>
    <path class="cls-46" d="m423.84,390.01c-3.99,3.29-9.18,3.75-14.34,3.38-3.06-.22-6.15-.68-9.03-1.77-1.43-.54-2.8-1.23-4.03-2.15-.45-.34-1.38-.91-1.58-1.45-.38-1.02.38-2.1.8-2.95.61-1.22,1.03-2.51,1.72-3.7,1.85-3.19,4.75-5.68,7.93-7.56,3.16-1.86,6.94-3.18,10.49-2.22,2.13.58,3.99,1.96,5.38,3.68s2.32,3.77,2.96,5.88c.56,1.85.91,3.77,1.03,5.7.04.68.06,1.39-.21,2.02s-.45,1.14-1.13,1.12Z"/>
    <path class="cls-54" d="m452.39,268.18c-3.36,3.62-5.63,3.73-10.43,4.91-1.73.43-3.7.63-5.17-.39-1.84-1.27-2.31-4.1-4.37-4.98-1.3-.56-2.79-.13-4.12.34-3.71,1.31-7.8,2.92-11.41,1.38-1.64-.7-3.11-2.03-4.89-2-2.26.03-3.87,2.26-4.57,4.41s-.91,4.53-2.2,6.38c-1.54,2.21-4.38,3.35-5.59,5.75-1.56,3.09.94,7.39,4.39,7.57,2.22.12,4.24-1.15,6.34-1.88,3.13-1.09,7.42-.44,8.54,2.68.83,2.33-.5,4.91-.09,7.35,2.95-.56,4.69-3.59,5.8-6.38s2.2-5.93,4.82-7.39c-2.1,2.97-2.66,6.97-1.47,10.41,1.56,4.53,5.97,8.42,5.14,13.14-.55,3.13-3.41,5.9-2.66,8.99.23.96.8,1.8,1.41,2.57,6.53,8.3,19.36,10.83,28.54,5.61,3.79-2.15,6.86-5.36,9.72-8.65,1.92-2.21,3.89-5.05,2.96-7.83-.71-2.11-2.9-3.39-3.89-5.39-1.22-2.47-.36-5.45.78-7.96s2.58-5.05,2.47-7.81c.54,1.53,1.08,3.06,1.62,4.59.31.89.66,1.82,1.4,2.41s1.99.62,2.49-.18c-.63-.86-.04-2.07.63-2.9,3.66-4.49,10.25-6.32,15.7-4.36-.91-1.5.2-3.41,1.39-4.69s2.64-2.72,2.45-4.47c-.22-1.92-2.25-2.98-3.82-4.11-2.29-1.64-3.99-4.08-4.75-6.8-.49-1.75-.66-3.72-1.92-5.02-2.12-2.18-5.74-1.13-8.58-.05-2.31.88-4.65,1.69-7.01,2.43-1.67.52-3.41,1.01-5.14.75-1.29-.19-2.49-.8-3.74-1.17-3.72-1.11-8.01-.03-10.77,2.71h0Z"/>
    <path class="cls-46" d="m483.93,378.69c-1.49.26-2.96.79-4.2,1.67-1.33.94-1.84,1.94-3.65,2.02-.8.03-1.65-.23-2.13-.87-.28-.38-.41-.85-.52-1.3-1.02-4.38-.57-9.24,1.98-12.94.94-1.36,2.13-2.53,3.4-3.59,1.52-1.27,3.16-2.4,4.93-3.28,4.37-2.17,9.52-2.73,14.26-1.55,3.56.88,6.95,2.8,9.12,5.76s2.95,7.03,1.54,10.42c-1.08,2.58-3.53,4.61-6.3,5.1-1.99.36-4.31-.28-6.32-.51-2.4-.28-4.8-.55-7.21-.76-1.57-.14-3.34-.44-4.91-.16Z"/>
    <path class="cls-70" d="m428.5,321.14c-3.7-3.76-6.83-8.08-9.25-12.76-1.08-2.09-2.17-4.41-4.3-5.42,1.93-1.4,3.1-3.6,4.03-5.8.97-2.29,1.71-5.04.42-7.17-1.16-1.92-3.67-2.66-5.89-2.36s-5.14.97-6.57,2.69c-2.5,3.01-4.68,6.3-6.47,9.78-.9,1.75-1.72,3.67-1.45,5.62.26,1.86,1.47,3.44,2.64,4.91,1.25,1.57,2.5,3.16,4.01,4.48,1.48,1.31,3.18,2.35,4.69,3.64,2.34,2,4.14,4.53,6.23,6.78s4.62,4.3,7.64,4.87c-.06,1.64.09,3.25.49,4.84.25,1,.64,2.04,1.48,2.62.36.25.81.4,1.24.31.33-.07.62-.27.93-.42,1.28-.65,2.82-.47,4.2-.87,2.65-.77,4.21-3.48,5.12-6.08.24-.69.46-1.4.42-2.13-.04-.8-.39-1.54-.75-2.26-1.2-2.4-2.83-4.91-5.42-5.6-1.27-.34-2.14.04-3.42.32Z"/>
    <path class="cls-70" d="m463.56,404.99c.26,1.62.57,3.24,1.12,4.79.34.97.8,1.95,1.62,2.59,1.29,1,3.09.9,4.71.67,2.1-.29,4.25-.73,5.97-1.95.43-.31.84-.66,1.12-1.11.65-1.02.58-2.32.52-3.53-.49-10.06,1.51-20.19.17-30.17-.17-1.29-.41-2.6-1.09-3.71s-1.87-1.99-3.17-1.94c-.8.03-1.54.4-2.25.76-3.63,1.83-8.46,4.27-9.48,8.63-.46,1.95-.24,4.28-.33,6.27-.13,2.92-.12,5.84.04,8.76.17,3.33.53,6.66,1.07,9.95Z"/>
    <path class="cls-70" d="m433.66,394.23c-.23,5.56,1.02,22.78,1.61,23.73.99,1.58,3.33,2.26,5.08,2.19,2.3-.09,4.44-1.16,6.42-2.32,1.82-1.07,3.7-2.3,5.1-3.89,1.23-1.4,1.5-23.7,1.3-25.98-.18-1.98-1.34-2.54-3.29-2.76-2.73-.3-5.47.19-8.17.67-2.2.4-4.82.87-6.62,2.33-1.56,1.27-1.32,3.57-1.4,5.39-.01.21-.02.42-.03.63Z"/>
    <path class="cls-35" d="m431.36,316.96c-9.63,18.3-22.91,34.52-32.23,52.98-2.84,5.62-5.36,11.85-4.32,18.06,1.88-2.65,1.4-7.01,4.29-8.49,1.94-.99,4.27,0,6.19,1.03,6.13,3.26,12.08,6.93,18.54,9.47s13.61,3.92,20.38,2.39c7.76-1.76,14.14-7.06,20.73-11.53s14.43-8.36,22.22-6.74c5.66,1.18,10.37,5.11,15.87,6.91,8.27,2.71,18.04-.04,23.68-6.67.53-.63,1.05-1.35,1.05-2.17,0-.5-.2-.97-.39-1.43-6.06-14.12-15.57-26.45-25.49-38.18-7.72-9.12-16.6-18.49-28.32-20.81l-42.2,5.18Z"/>
    <path class="cls-8" d="m432.34,271.08c-1.74-2.13-1.55-4.62,0-5.08s10.13,5.07,10.58,7.24.2,6.6.04,7.41-8.98-7.56-10.62-9.57Z"/>
    <path class="cls-8" d="m445.06,280.6c.34,1.1,12.17-8.66,14.09-11.98s1.4-6.37-.54-5.72-10.72,7.67-11.55,8.75-2.83,6.29-2,8.96Z"/>
    <path class="cls-6" d="m408.16,226.25c1.28-.79,3.01-1.72,4.34-1.02,2.11,1.11,1.61.88,2.11,1.11"/>
    <ellipse class="cls-55" cx="413.84" cy="237.2" rx="4.24" ry="5.93" transform="translate(-44.94 106.63) rotate(-13.93)"/>
    <path class="cls-6" d="m426.39,223.2c1.85-1.81,4.3-2.99,6.87-3.31"/>
    <ellipse class="cls-62" cx="414.18" cy="239.02" rx="4.24" ry="5.93" transform="translate(-45.37 106.77) rotate(-13.93)"/>
    <ellipse class="cls-55" cx="434.4" cy="233.73" rx="4.24" ry="5.93" transform="translate(-43.5 111.48) rotate(-13.93)"/>
    <ellipse class="cls-62" cx="434.79" cy="235.28" rx="4.24" ry="5.93" transform="translate(-43.86 111.62) rotate(-13.93)"/>
    <path class="cls-7" d="m421.16,244.97s.07-.04.05-.07-.08,0-.08.04c.07.47.05.95-.06,1.4-.02.08-.04.16-.02.24.04.13.17.19.3.23.82.27,1.73.24,2.52-.1"/>
    <path class="cls-3" d="m422.77,253.2c.48.1.96.18,1.44.23.49.05.99.08,1.47-.05.55-.16,1.02-.52,1.46-.9.7-.62,1.35-1.3,1.92-2.04"/>
    <ellipse class="cls-55" cx="413.84" cy="240.8" rx="3.17" ry="4" transform="translate(-53.71 137.61) rotate(-17.75)"/>
    <ellipse class="cls-55" cx="434.4" cy="236.98" rx="3.17" ry="4" transform="translate(-51.56 143.69) rotate(-17.75)"/>
    <path class="cls-31" d="m271.24,367.29c-.03.81-.48,5.4-1.96,8.56-1.14,2.44-2.88,4.03-5.51,2.4-6.03-3.73-5.57-18.97-2.81-19.07,1.38-.05,2.6.13,3.67.48,4.86,1.57,6.64,6.46,6.61,7.63Z"/>
    <path class="cls-31" d="m299.62,365.17l-3.2-.79-2.24-.55-9.92-2.45c.28-2.54,5.73-11.19,7.53-11.42.41-.05.96.08,1.58.45,2.07,1.22,4.97,5.11,6.14,13.94.04.27.08.54.11.82Z"/>
    <rect class="cls-31" x="274.72" y="370.89" width="7.19" height="3.32" rx="1.66" ry="1.66" transform="translate(31.37 -21.49) rotate(4.69)"/>
    <rect class="cls-31" x="286.2" y="365.92" width="7.19" height="3.32" rx="1.66" ry="1.66" transform="translate(-173.43 434.76) rotate(-60)"/>
    <path class="cls-51" d="m299.51,364.35c-.91.1-2.01.14-3.09.03-.79-.08-1.57-.25-2.24-.55-.68-.31-1.26-.75-1.65-1.37-1.98-3.18.3-8.67.74-12,0,0,.03-.02.1-.05,2.07,1.22,4.97,5.11,6.14,13.94Z"/>
    <path class="cls-51" d="m272.46,367.59c-.03.81-1.69,5.1-3.17,8.26-.51-.16-1.12-.4-1.87-.76-5.16-2.44-4.69-15.81-4.69-15.81l1.91.38c4.86,1.57,7.86,6.76,7.83,7.93Z"/>
    <path class="cls-70" d="m471.11,316.37c-1.55,1.7-2.95,3.7-4.69,5.21-1.34,1.17-2.56,2.09-2.64,4.07-.08,2.1,1.33,4.1,3.34,4.61,2.2.56,4.49,1.13,6.71.66s4.33-2.3,4.31-4.57c0-.8-.27-1.59-.2-2.38.12-1.39,1.21-2.48,2.21-3.45,6.5-6.24,12.57-12.91,18.18-19.96.41-.51.83-1.07.9-1.72.07-.7-.29-1.36-.63-1.98-1.28-2.3-2.57-4.59-3.85-6.89-.66-1.18-1.35-2.39-2.43-3.2-1.02-.76-2.3-1.09-3.56-1.18-4.24-.29-8.54,2.29-10.28,6.17-.29.65-.52,1.36-.39,2.05.2,1.16,1.28,1.93,2.27,2.56.78.5,2.89,1.37,3.02,2.45.11,1.01-1.82,2.47-2.42,3.22-1.9,2.33-3.53,4.86-5.16,7.37-1.49,2.3-2.84,4.94-4.68,6.96Z"/>
    <path class="cls-43" d="m432.04,377.63c-.11.47-.18.98.02,1.42.25.54.85.84,1.43.98,1.28.31,2.68.06,3.77-.67.55-.37,1.12-.88,1.77-.76.48.09.82.5,1.23.77.72.47,1.72.47,2.44,0,.27-.18.49-.41.78-.57,1.21-.67,2.62.38,3.98.66.71.15,1.47.07,2.14-.22.34-.15.68-.38.76-.74.05-.21,0-.43-.06-.65-.31-1.19-.61-2.38-.92-3.57-.02-.09-.05-.19-.11-.27-.16-.22-.48-.21-.75-.15-1.77.42-2.92,2.08-4.84,2.02-.95-.03-1.76-.32-2.73-.16-.59.1-1.14.37-1.73.47-1.9.31-2.71-.83-3.96-1.96-1.65-1.49-2.92,2.01-3.25,3.4Z"/>
    <path class="cls-40" d="m490.3,359.51c-.78.27-1.63-.24-2.14-.88s-.84-1.43-1.39-2.04c-.09-.1-.2-.21-.34-.23-.17-.03-.32.07-.46.17-.93.73-1.31,1.94-1.61,3.08-.18.66-.35,1.34-.26,2.02s.47,1.36,1.11,1.6c1.06.4,2.11-.53,3.2-.85.2-.06.41-.1.6-.03.33.12.47.49.72.73.49.47,1.3.35,1.93.09s1.28-.61,1.95-.51c1.18.17,1.96,1.69,3.15,1.53.44-.06.82-.35,1.13-.67,1.07-1.13,1.57-2.78,1.29-4.32-.02-.13-.05-.27-.14-.37-.18-.22-.52-.19-.79-.11-1.48.43-2.84,1.89-4.44,1.03-.46-.25-.69-.74-1.23-.92-1.01-.34-1.41.36-2.27.66Z"/>
    <path class="cls-28" d="m457.07,351.22c.31-.07.65-.11.94.03.23.11.4.33.6.49.63.48,1.56.33,2.23-.1s1.16-1.07,1.71-1.63,1.25-1.07,2.04-1.08c.25.7-.39,1.38-.59,2.1-.24.89.24,1.81.3,2.73.07,1.18-.63,2.37-1.7,2.88s-2.44.29-3.31-.51c-.34-.31-.64-.73-1.1-.8-.41-.06-.79.19-1.12.44s-.69.52-1.1.51-.82-.47-.61-.82c-1.53.27-3.02.81-4.37,1.58-.33.19-.7.41-1.08.35-.74-.1-.99-1.08-.77-1.79s.71-1.33.81-2.06c.09-.63-.12-1.26-.22-1.89s-.07-1.36.4-1.8c.33-.31.8-.41,1.24-.47.8-.11,1.72-.09,2.26.5.46.5.43,1.78,1,2.11.61.35,1.75-.6,2.43-.76Z"/>
    <path class="cls-43" d="m486.16,343.8c.06.46,1,2.04,1.27,2.46.3.45.15,1.17.4,1.67.44.88,1.62,1.22,2.54.87s1.55-1.25,1.78-2.2c.16-.67.27-1.45,1.09-1.55.23-.03.47,0,.71-.01.57-.04,1.1-.41,1.35-.92.14-.3.25-.7.58-.77.13-.03.27,0,.4.04,1.25.28,5.99-.62,4.09-2.65-.4-.43-.91-.75-1.22-1.25-.42-.7-.35-1.57-.32-2.39,0-.21,0-.43-.11-.6-.3-.45-1.02-.18-1.35.24-.54.69-.67,1.6-.9,2.44s-.64,1.74-1.46,2.06c-.52.2-1.11.13-1.66.24-.69.14-.71.68-1.18,1s-1.15.33-1.7.4c-1.08.27-2.55-.07-3.65-.08-.14,0-.7.75-.66,1.01Z"/>
    <path class="cls-28" d="m465.26,341.12c-.09-.41-.37-.75-.55-1.13s-.24-.89.07-1.18c.31-.29.8-.21,1.2-.08.98.31,1.91.78,2.74,1.38.57.41,1.16.9,1.86.85.97-.07,1.5-1.13,2.09-1.9.79-1.04,2.25-1.76,3.4-1.16.33.17.67.45,1.02.33.28-.09.42-.39.53-.66.65-1.57,1.29-3.14,1.94-4.71.14-.34.34-.73.7-.79.22-.03.43.07.6.21.34.29.52.75.47,1.19-.04.37-.23.71-.25,1.08-.08,1.39,2.1,2.04,2.15,3.43.03.93-.91,1.57-1.76,1.95-.62.27-1.26.52-1.94.55-.5.03-1-.06-1.49.02-1.06.17-1.83,1.06-2.72,1.65s-2.31.81-2.87-.11c.5.82-4.51,2.82-5.13,2.84-.81.02-2.05-.31-2.34-1.13s.47-1.77.28-2.64Z"/>
    <path class="cls-40" d="m452.75,342.21c.08.63.62,1.14.65,1.77.06,1.02-1.24,1.63-2.25,1.44s-1.86-.85-2.84-1.18c-.14-.05-.29-.09-.44-.05-.17.04-.31.18-.43.31-.4.43-.82.87-1.37,1.09s-1.26.14-1.6-.34c-.27-.37-.32-.94-.74-1.12-.16-.06-.33-.05-.5-.04-1.45.15-2.86.72-4.01,1.62-.31.25-.7.53-1.07.38-.47-.2-.39-.91-.08-1.31s.77-.71.9-1.2c.23-.84-.66-1.71-.38-2.53.23-.7,1.19-.9,1.88-.64s1.22.82,1.82,1.25,1.41.73,2.07.39c.4-.2.67-.61,1.08-.79.98-.42,2.06.66,3.1.44,1.85-.41,2.96-3.44,4.93-3.37s-.9,2.8-.73,3.87Z"/>
    <path class="cls-40" d="m420.52,356.42c-.17-.33-.38-.75-.75-.74-.14,0-.27.08-.38.18-.35.34-.33.92-.16,1.38s.45.88.55,1.36c.14.65-.07,1.31-.31,1.93-.26.66-.5,1.58.1,1.97.17.11.39.15.59.16,1.1.08,2.22-.39,2.93-1.23.2-.24.48-.54.77-.42.17.07.26.25.36.41.43.65,1.46.8,2.06.29.25-.21.42-.51.67-.73.83-.72,2.12-.28,3.1.24.38.2.78.42,1.21.44s.91-.26.97-.69c.05-.38-.24-.73-.56-.95s-.69-.36-.96-.64c-.65-.65-.5-1.7-.48-2.61,0-.27-.01-.58-.22-.76-.67-.58-1.85.85-2.14,1.35-.18.31-.4.7-.75.67-.12-.01-.23-.07-.34-.14-.53-.33-1.24-.9-1.92-.7-.54.16-.63.73-1.11.98-1.25.65-2.69-.71-3.23-1.74Z"/>
    <path class="cls-43" d="m417.67,340.16c-.27-.61-.74-.98-1.56-.5-.67.39-1.1,1.07-1.5,1.73-.41.67-.82,1.48-.49,2.18.44.93,1.83.95,2.47,1.75.39.49.41,1.15.54,1.76s.46,1.28,1.07,1.38c.46.08.9-.2,1.33-.39s1.02-.25,1.3.13c.19.26.15.61.17.93.05.65.44,1.27,1.01,1.57s1.32.27,1.85-.11c.86-.62.93-1.85,1.45-2.78.39-.69,1.02-1.21,1.46-1.86s.66-1.59.15-2.2c-.62-.75-1.85-.49-2.66.04s-1.58,1.27-2.55,1.34c-.13,0-.26,0-.37-.05-.17-.09-.26-.27-.35-.43-.23-.42-.59-.88-1.04-1.09-.57-.27-.87.06-1.36-.02-1.03-.16-.59-.79-.6-1.63,0-.51-.08-1.22-.31-1.75Z"/>
    <path class="cls-28" d="m511.96,356.65c-.43-.11-.97-.02-1.18.38,1.17,1.28,2.14,2.73,2.87,4.3.22.47.42.96.8,1.33s.96.56,1.42.31c.47-.26.62-.87.6-1.41s-.17-1.08-.07-1.61.56-1.06,1.09-.96c.2.04.39.15.59.14.41-.02.59-.53.62-.94s.06-.9.42-1.1c.29-.17.66-.04.99-.09.55-.07.95-.62,1.01-1.17s-.13-1.1-.38-1.6c-.37-.75-.84-1.44-1.41-2.06-.2-.21-.44-.43-.73-.42-.43.02-.68.54-.64.97s.23.84.25,1.28c.05,1.68-1.97,1.38-2.86,2.22-.37.35-.42.73-.94.94-.88.34-1.64-.3-2.44-.5Z"/>
    <path class="cls-28" d="m408.14,363.46c.43-.11.97-.02,1.18.38-1.17,1.28-2.14,2.73-2.87,4.3-.22.47-.42.96-.8,1.33s-.96.56-1.42.31c-.47-.26-.62-.87-.6-1.41s.17-1.08.07-1.61-.56-1.06-1.09-.96c-.2.04-.39.15-.59.14-.41-.02-.59-.53-.62-.94s-.06-.9-.42-1.1c-.29-.17-.66-.04-.99-.09-.55-.07-.95-.62-1.01-1.17s.13-1.1.38-1.6c.37-.75.84-1.44,1.41-2.06.2-.21.44-.43.73-.42.43.02.68.54.64.97s-.23.84-.25,1.28c-.05,1.68,1.97,1.38,2.86,2.22.37.35.42.73.94.94.88.34,1.64-.3,2.44-.5Z"/>
    <path class="cls-64" d="m480.27,439.17c-1.03,1.11-2.5,1.69-3.97,2.07-1.1.29-2.23.47-3.36.55-.72.05-1.5.04-2.09-.37-.65-.44-.92-1.24-1.15-1.99-2.67-8.64-5.35-17.39-5.94-26.42-.02-.11-.02-.23-.03-.34-.02-.36-.04-.75-.02-1.12.02-.82.21-1.57.97-1.77,2.02,1.19,4.78.97,7.11.61,1.83-.27,3.73-.75,5.07-2.02.66-.62.96-1.5,1.75-1.93.35.15.61.78.75,1.34.08.28.12.54.14.72.04.39.07.78.11,1.17.71,7.25,1.54,13.89,2.23,21.21.28,2.89.42,6.18-1.57,8.29Z"/>
    <path class="cls-8" d="m494.32,455.91c-.78.8-1.86,1.22-2.91,1.61-2.27.85-4.59,1.63-7.01,1.77-2.42.14-4.96-.44-6.77-2.04-1.24-1.11-2.05-2.61-3.23-3.77-1.58-1.57-3.85-2.59-4.73-4.64-.2-.46-.31-.95-.37-1.45-.16-1.05-.13-2.16-.36-3.2-.18-.81-.52-1.57-.66-2.39-.15-.96.23-3.31,1.47-3.43.6-.06,1.18.22,1.74.43,1.4.53,2.89.67,4.39.7.65.02,1.3.01,1.95,0,.37-.01.75-.02,1.1-.14,1.13-.39,1.67-1.83,2.82-2.14.16-.05.33-.06.48,0,.15.07.25.22.34.36,1.34,2.21.23,5.19,1.64,7.4.71,1.12,1.79,1.7,3.04,2.06,1.2.34,2.52.47,3.75.77,1.26.3,2.44.79,3.32,1.89,1.42,1.76,1.58,4.59,0,6.21Z"/>
    <path class="cls-43" d="m289.41,402.2c-1.22-.08-2.2.92-3.15,1.7-1.71,1.42-3.78,2.31-5.82,3.18-1.48.63-3.01,1.28-4.62,1.23-1.15-.03-2.26-.41-3.33-.84-3.02-1.21-6.01-2.94-7.71-5.72-1.75-2.85-1.85-6.64-.26-9.58.37-.69.87-1.36,1.59-1.66,1.36-.56,2.81.4,4.08,1.14,3.39,1.99,7.41,2.64,11.34,2.84,4.64.24,9.36-.09,13.76-1.57s8.48-4.18,11.09-8.02c.92-1.35,1.65-2.82,2.61-4.13.7.3,1.24.96,1.4,1.7,1.3,6.35,1.71,13.36-2.15,18.56-.68.91-1.44,1.77-2.38,2.41-1.78,1.22-4.02,1.55-6.18,1.64-1.44.06-3.01-.02-4.13-.94-.5-.41-.87-.96-1.37-1.37-1.61-1.35-2.69-.46-4.78-.59Z"/>
    <circle class="cls-47" cx="290.35" cy="404.14" r="6.29"/>
    <path class="cls-2" d="m288.16,404.81c1.69.23,3.42.2,5.1-.09"/>
    <line class="cls-2" x1="290.71" y1="404.97" x2="290.93" y2="410.4"/>
    <ellipse class="cls-61" cx="281.14" cy="378.66" rx="1.35" ry="2.67" transform="translate(-101.95 103.59) rotate(-17.73)"/>
    <ellipse class="cls-61" cx="294.08" cy="372.98" rx="1.35" ry="2.67" transform="translate(-99.61 107.26) rotate(-17.73)"/>
    <path class="cls-5" d="m287.41,379.13c.98-.82,2.18-1.39,3.44-1.63"/>
    <path class="cls-5" d="m288.46,384.42c.44-2.02.72-4.07.83-6.14,1.77.9,3.36,1.74,5.18,2.54"/>
    <path class="cls-39" d="m411.35,201.86c-.53.17-1.06.35-1.59.53.66-2.11,1.42-4.18,2.36-6.18.18-.38.37-.76.57-1.16.23,0,.46.01.69.03-.35.87-.66,1.76-.97,2.65-.46,1.34-.93,2.74-1.06,4.13Z"/>
    <path class="cls-39" d="m466.35,217.32s0,.09,0,.13c-2.01,1.19-5.16.78-7.58,1.43-1.7.46-3.24,1.43-4.49,2.67-.48.48-.95,1.01-1.58,1.27-1.44.59-3-.48-4.05-1.62-1.04-1.15-2.07-2.53-3.6-2.79-1.03-.17-2.05.21-3.08.33-5.55.62-9.32-6.49-14.84-5.69-3.45.49-6.87,4.19-10.31,3.67-2.05-.31-1.84-2.65-3.9-2.33-1.43.22-4.52,1.99-5.53,3.04-2.24,2.3-4.75,4.35-7.45,6.09-.86.55-1.77,1.08-2.77,1.24-1.01.16-2.15-.12-2.76-.93-.5-.66-.57-1.55-.51-2.38.24-3.41,2.22-5.54,4.16-7.87,1.21-.87,2.51-1.63,3.9-2.37.05.24.11.48.19.72.17.5.44.99.86,1.31.97.74,2.34.39,3.49.01,5.41-1.79,10.82-3.57,16.23-5.36,2.11-.7,4.41-1.4,6.53-.7,1.96.65,3.36,2.37,5.14,3.42,2.09,1.23,4.73,1.45,6.99.61.82-.31,1.6-.75,2.46-.87,1.69-.24,3.27.76,4.86,1.4,3.3,1.33,7.19,1.09,10.3-.64,1.22-.68,2.38-1.4,3.63-2.02.52-.26.76-.2.99-.77.3-.74-.35-1.67.51-2.15.47.6.89,1.25,1.25,1.96.16.32.3.65.42.99.92,2.55.67,5.41.55,8.2Z"/>
    <path class="cls-64" d="m453.33,423.84c-.01,6.73.11,13.39-.72,20.07-.07.53-.15,1.08-.44,1.53-.45.7-1.31.99-2.1,1.23-1.55.48-3.13.96-4.75.95-1.62-.02-3.32-.6-4.29-1.89-.57-.75-.85-1.67-1.12-2.57-2.31-7.82-4.26-15.74-5.84-23.73-.09-.48-.19-.97-.28-1.45-.02-.08-.03-.17-.05-.25-.28-1.48,1.06-1.17,2-1.2,1.28-.03,2.19-.25,3.46-.32,2.58-.15,5.17-.54,7.57-1.51,1.43-.57,3.7-1.6,4.95-2.48.94-.66.95-.14,1.33.3.17.19.28.44.35.74.11.44.13.96.11,1.51-.02.96-.17,1.97-.18,2.58v6.49Z"/>
    <path class="cls-31" d="m283.27,439.86c-.09.24-.17.48-.26.72-.29.81-.58,1.63-1.06,2.34-.77,1.13-1.59,2.28-2.87,2.74-2.95,1.06-6.17.97-9.3.87-1.12-.03-3.4-.29-3.3-1.9.08-1.19,1.88-1.43,2.42-2.5.28-.54.16-1.2-.08-1.77,4.1-1.5,10.02-.9,13.67-.59.26.02.53.04.78.09Z"/>
    <path class="cls-31" d="m314.11,444.48c-.11.25-.39.4-.65.5-1.15.47-2.43.52-3.67.55-3.55.08-7.11.02-10.65-.17-.27-.01-.56-.03-.79-.18-.34-.21-.48-.63-.54-1.03-.15-1.16.24-2.37-.04-3.5-.05-.22-.13-.43-.22-.64,1.05-.38,2.1-.67,2.97-.95,1.27-.41,2.55-.82,3.87-.98,1.74-.2,3.49.03,5.22.29.46.07.92.14,1.38.22,0,.03-.01.06-.02.09-.19.68-.43,1.46-.06,2.06.28.46.82.66,1.29.92.79.45,1.43,1.15,1.81,1.98.12.26.21.57.1.84Z"/>
    <path class="cls-31" d="m263.08,413.75h0c-.1.57-.19,1.13-.29,1.7-.13.77-.27,1.55-.63,2.24-.36.69-.99,1.28-1.76,1.39-.9.13-1.85-.51-2.07-1.39-.68.5-.5,1.75-1.26,2.15-.44.23-1.02.01-1.34-.37-.33-.39-.47-.89-.6-1.38-.33.44-.66.88-.99,1.32-.16.21-.44.46-.67.31-.09-.06-.13-.16-.18-.25-.87-2.01-.92-4.31-.44-6.45,2.34-.88,5.59-.68,7.91-.47.81.07,1.71.24,2.17.91.06.09.11.19.15.29Z"/>
    <path class="cls-31" d="m320.78,411.93c-.08.29-.21.63-.5.69-.25.06-.49-.12-.74-.12-.6-.01-1.11.93-1.6.58-.23-.16-.27-.54-.53-.63-.42-.13-.58.54-.95.77-.28.17-.66.04-.88-.2-.22-.24-.31-.56-.4-.88-.2-.7-.32-1.53-.58-2.21-.06-.15-.16-.31-.29-.48.02-.05.04-.1.07-.15,1.73-3.36,3.39-5.08,7.03-5.26.25,2.7,0,5.45-.63,7.89Z"/>
    <path class="cls-43" d="m453.51,414.77c-4.94,2.51-13.43,5.45-19.44,4.66-.09-.48-.19-.97-.28-1.45,8.43-.16,14.58-2.28,19.61-4.72.11.44.13.96.11,1.51Z"/>
    <path class="cls-43" d="m479.61,409.67c-4.52,3.54-9.89,5.57-15.85,3.34-.02-.11-.02-.23-.03-.34-.02-.36-.04-.75-.02-1.12,4.29,2.54,13.43-.19,15.65-3.77.08.28.12.54.14.72.04.39.07.78.11,1.17Z"/>
    <path class="cls-8" d="m455.2,446.89c-.07.83-.42,1.61-.78,2.36-1.25,2.56-2.81,4.97-4.62,7.17-.89,1.08-1.85,2.11-3,2.9-3.32,2.28-7.73,2.22-11.65,1.34-.59-.13-1.18-.28-1.72-.55-1.5-.74-2.46-2.44-2.34-4.1.04-.49.16-.97.37-1.41.49-1.07,1.41-1.93,2.52-2.3t.02-.01c.47-.16.97-.23,1.4-.48.14-.08.26-.18.38-.3.2-.17.37-.38.54-.58,1.2-1.48,2.24-3.09,3.12-4.79,1.08-2.11,1.75-1.27,3.88-1.02,3.58.42,7.34-.56,10.19-2.78.42.64.84,1.31,1.17,2.01-.01,0,0,.01,0,.01.36.81.59,1.65.52,2.53Z"/>
    <path class="cls-1" d="m455.2,446.89c-.07.83-.42,1.61-.78,2.36-1.25,2.56-2.81,4.97-4.62,7.17-.89,1.08-1.85,2.11-3,2.9-3.32,2.28-7.73,2.22-11.65,1.34-.59-.13-1.18-.28-1.72-.55-1.5-.74-2.46-2.44-2.34-4.1.04-.49.16-.97.37-1.41.56-.82,1.29-1.52,2.03-2.01.16-.1.32-.2.49-.29t.02-.01c.56-.32,1.16-.58,1.78-.78,1.46-.48,3.03-.68,4.57-.78,1.04-.07,2.1-.1,3.12.12,1.21.25,2.31.85,3.34,1.52.29.19.58.39.92.48.82.2,1.62-.35,2.25-.91,1.29-1.14,2.39-2.48,3.28-3.95.45-.73.92-1.53,1.18-2.36.05-.16.12-.8.24-1.27.36.81.59,1.65.52,2.53Z"/>
    <path class="cls-1" d="m494.32,455.91c-.78.8-1.86,1.22-2.91,1.61-2.27.85-4.59,1.63-7.01,1.77-2.42.14-4.96-.44-6.77-2.04-1.24-1.11-2.05-2.61-3.23-3.77-1.58-1.57-3.85-2.59-4.73-4.64-.2-.46-.31-.95-.37-1.45,1.13-.06,2.15,1.21,2.86,1.89,1.33,1.31,2.67,2.62,4.01,3.92.62.6,1.31,1.24,2.17,1.29,1.29.07,2.21-1.18,3.1-2.12,1.58-1.68,3.74-2.69,5.89-3.5,1.18-.45,2.42-.86,3.67-1.06,1.26.3,2.44.79,3.32,1.89,1.42,1.76,1.58,4.59,0,6.21Z"/>
    <path class="cls-17" d="m479.17,438.08c.42.13.81.19,1.24-.2.85-.74,1.35-1.92,1.58-3,.14-.66.27-1.43.86-1.74.68-.35,1.47.16,2.05.65.53.46,1.06.93,1.56,1.41.46.44.93.96.93,1.59,0,.72-.63,1.28-1.24,1.67-1.17.75-2.48,1.29-3.84,1.58.98,1.43,2.72,2.24,4.45,2.31,1.53.06,3.44-1.06,4.77-1.76.53-.28,1.08-.6,1.4-1.11-.57.76-.85,1.73-.77,2.67.04.5.18,1.01-.01,1.47-.22.52-.78.79-1.3,1.01-1.13.47-2.29.88-3.46,1.24-1.03.31-2.24.4-3.31.28-1.87-.21-3.6-1.34-4.56-2.95-.36.53-.73,1.07-1.29,1.38s-1.34.31-1.75-.18c-.45,3.94-3.26,6.58-6.72,8.04-.33.14-.66.28-1.01.31-.44.04-.89-.09-1.31-.23-1.37-.47-2.67-1.11-3.97-1.74.6-.03,1.2-.06,1.8-.08.34-.02.68-.03,1.01-.13.37-.11.71-.31,1.03-.51,1.39-.89,2.78-1.81,4.13-2.74.63-.43,1.28-.87,1.83-1.41.51-.5.67-1.3,1.09-1.74-.56.59-1.64.73-2.41.91-.91.22-1.84.3-2.77.25-1.41-.07-3.85-.39-4.71-1.65-.43-.62-.6-1.38-.77-2.11-.18-.8-.35-1.64-.17-2.45s.83-1.56,1.65-1.6c.67-.03,1.26.4,1.82.76,1.91,1.24,4.42,2.08,6.63,2.58.55.13,1.18.21,1.63-.14.56-.45.49-1.33.86-1.95.36-.6,1.1-.86,1.8-.95.47-.06.86.11,1.23.22Z"/>
    <path class="cls-17" d="m436.79,438.81c.17-1.93,2.45.15,3.25.72.67.48,1.33.98,1.96,1.51.39.33,1.16,1.34,1.72,1.34.59,0,.88-.89,1.32-1.23s1.05-.58,1.64-.51c.17.02.35.07.48.17.53.41.26,1.33.53,1.87,1.03-.51,1.21-2.11,2.17-2.82.82-.61,1.69-1.14,2.57-1.65.36-.21,1.36-1.08,1.77-1.03.29.04.53.27.66.53.46.89.14,2.43.12,3.39,0,.68-.02,1.37-.16,2.03-.12.56-.34,1.1-.64,1.59-.05.08-.11.17-.19.22-.1.06-.22.07-.33.07-.76.01-1.54-.15-2.22-.49-.53-.27-.81-.68-1.47-.52.1-.02,1.81,2.76,1.98,2.97,1.07,1.36,1.71,3,2.85,4.32.94,1.09,2.24,1.93,3.68,2.02-1.2.92-2.53,1.67-3.94,2.23-.28.11-.58.22-.88.22-.73,0-1.31-.6-1.79-1.15-1.47-1.69-2.23-3.95-3.42-5.85-.54-.87-1.34-2.32-1.13-3.4-.15.75-.96,1.22-1.73,1.25-.49.01-1.02-.14-1.3-.54-.04-.05-.07-.11-.13-.13-.12-.04-.23.07-.3.17-1.16,1.64-2.5,3.24-3.47,5-.95,1.72-1.49,3.7-1.29,5.65-1.84-.71-3.79-1.12-5.75-1.2.66-.78,1.32-1.56,1.97-2.33,1.25-1.48,2.7-3.01,3.6-4.74.72-1.38,1.82-2.93,3.31-3.65-.78.37-1.45.94-2.19,1.37s-1.63.74-2.47.53c-2.95-.73-.95-5.94-.78-7.91Z"/>
  </g>
  <g id="foreground">
    <path class="cls-72" d="m262.34,462.92c13.6,0,28.76-.82,38.19-10.62l-6.07,13.33c9.99-3.31,18.96-9.62,25.45-17.9l-3.08,10.32c2.78-1.36,5.56-2.71,8.34-4.07-.1,1.43-.88,2.8-2.07,3.61,4.2-1.23,8.4-2.45,12.6-3.68-.52.77-1.04,1.55-1.56,2.32,16.1,1.84,32.67-.58,47.57-6.94-5.7,4.03-11.14,8.42-16.28,13.15l20.7-5.44c-6.56,8.97-12.41,18.45-17.5,28.33,3.71-1.96,8,.84,11.7,2.81,5.69,3.04,12.34,4.25,18.75,3.42.92-.12,1.9-.27,2.75.11,1.79.8,2.01,3.45,3.67,4.49,1.83,1.14,4.14-.23,5.84-1.56-.51,1.41,1.26,2.59,2.75,2.75s3.23,0,4.23,1.11c.72.81.77,2,.75,3.09-.18,10.47-2.31,20.91-6.26,30.6-2.95,7.24-7.43,14.55-14.68,17.47-3.55,1.43-7.46,1.68-11.28,1.9-13.71.81-27.43,1.62-41.14,2.43-12.2.72-24.5,1.46-36.32,4.6-6.65,1.77-13.11,4.3-19.19,7.52-2.86,1.51-5.82,3.23-9.05,3.16-4.36-.09-7.95-3.36-10.83-6.63-12.25-13.89-19.92-31.26-31.58-45.64-5.73-7.06-12.48-13.51-16.33-21.74-3.88-8.3-4.57-20.92,4.54-25.74,11.07-5.87,23.1-6.58,35.39-6.58Z"/>
    <path class="cls-42" d="m150.86,461.1c-1.82,5.32-4.69,10.28-8.39,14.51-.2.24-.4.47-.61.7-.23.25-.46.5-.7.75-1.34,1.4-2.77,2.71-4.14,4.09h-.01c-.08.07-.15.15-.22.22-1.49,1.5-2.88,3.07-3.96,4.87-2.38,3.99-3.03,8.79-3.03,13.44.01,3.66.14,7.89-2.63,10.28-1.09.94-2.41,1.4-3.83,1.57-2.02.26-4.24-.05-6.29-.29-6.7-.8-13.48-.43-20.21-.93-9.21-.67-18.37-2.96-27.58-2.21-2.35.19-4.68.5-7,.89-13.13,2.24-25.88,7.27-38.97,9.29-.75.12-1.52.21-2.29.26v-45.98c4.61-4.95,8.19-10.85,10.42-17.23-.05,3.36-.1,6.72-.15,10.08,1.77-1.55,3.53-3.1,5.3-4.65.04,1.13.07,2.27.11,3.41,0-.49,5.01-3.57,5.78-4.21,3.11-2.62,5.98-5.35,8.42-8.62-.5,1.17-1.01,2.34-1.51,3.52-.77,1.79-.45,2.63.46,2.86,2.4.63,8.92-2.96,10.06-4.1,3.52-3.48,6.48-9.2,6.48-14.27.02,6.21.04,12.44.06,18.65,0,.74.2,1.72.94,1.79.27.03.52-.08.76-.21,4.33-2.29,5.04-8.02,6.52-12.69,1.94-6.1,5.9-11.25,10.17-16.09.7-.8,1.4-1.58,2.11-2.36.01-.01.02-.02.02-.03.29-.31.57-.62.85-.93-.18.34-.36.68-.53,1.03t-.01.02c-.38.76-.74,1.52-1.07,2.3-2.63,6.04-3.95,12.65-3.83,19.24,7.57-2.52,14.01-8.27,17.37-15.51-.47,3.57-1.9,6.93-3.32,10.23-3.31,7.68-6.61,15.36-9.92,23.05,4.25-.38,8.33-2.45,11.14-5.66-1.43,1.72-2.86,3.44-4.28,5.16,6.99-2.45,13.46-6.39,18.85-11.47-.9,3.58-1.8,7.16-2.7,10.74,11.22-5.96,23.15-10.6,35.45-13.79-2.3,3.45-4.6,6.9-6.9,10.35,4.31,1.15,9.09.38,12.81-2.07Z"/>
    <path class="cls-52" d="m517.39,580.11c-1.62,2.55-4.65,2.73-6.36,5.04-1.8,2.42-1.87,5.96-2.8,8.74-2.9,8.7-12.66,12.65-21.06,16.32-1.32.58-2.64,1.17-3.94,1.79h-242.04s-.02-.04-.02-.06c-.64-1.54-1.22-3.12-1.74-4.72-6.39-19.84-2.81-40.99,2.12-60.71,1.94-7.74,3.6-11.44,7.53-14.89,1.94-1.7,4.43-3.34,7.78-5.37,3.89-2.37,7.86-4.6,11.77-6.92,3.72-2.21,7.37-4.5,10.86-7.07.4-.29.79-.59,1.18-.89.58-.44,1.14-.88,1.7-1.34,1.34-1.08,2.63-2.21,3.87-3.4h.01c.33-.32.66-.63.98-.96,2.75-2.73,5.2-5.74,7.21-9.1,1.04,1.73.82,4.13-.53,5.64,1.81-.77,3.62-1.55,5.43-2.32,4.86,1.95,11-.13,13.67-4.64,3.45,2.95-.83,10.36,3.17,12.5.01.01.03.01.04.02h.01c.92.47,2,.45,3.03.46,8.66.02,17.29,2.67,24.48,7.5.13-3.57,5.9-3.51,8.32-.88s3.58,6.53,6.74,8.21c1.54.82,3.34.97,5.09,1.1,5.56.43,11.12.85,16.67,1.27,1.59-3.74,3.18-7.49,4.76-11.24-.45,3.35,4.73,4.22,7.76,2.72,3.72-1.84,6.74-5.07,8.32-8.91.29-.7.56-1.45.88-2.17h0c.59-1.35,1.34-2.58,2.67-3.11,1.33-.53,2.82-.15,4.24-.28,3.1-.26,5.49-2.8,8.42-3.86.21-.07.42-.14.63-.2,2.29-.66,4.77-.5,7.17-.63,10.45-.56,19.68-6.62,28.35-12.47-.38,1.42-.76,2.83-1.15,4.25,7.45-3.48,14.66-7.47,21.56-11.93-3.17,5.26-6.34,10.51-9.52,15.77,3.09-1.75,6.17-3.51,9.25-5.26.71-.41,1.58-.83,2.32-.48.5.23.61.98.38,1.4,3.08-1.6,6.16-3.18,9.24-4.77-.32,1.22.13,2.61,1.12,3.4,9.13.03,18.21-3.8,24.56-10.37-1.05,2.29-1.1,4.71-.67,7.18.56,3.21,1.94,6.49,2.97,9.62.17.53.34,1.06.49,1.59.62,2.17,1.07,4.38,1.38,6.6,1.68,12.22-1.17,25.03-5.1,36.9-1.32,3.97-2.77,8.04-2.51,12.22.45,7.16,5.72,12.95,8.78,19.44,1.37,2.93,2.26,6.55.52,9.27Z"/>
    <path class="cls-44" d="m275.65,488.96c-2.51,2.42-3.89,9.65-4.89,16.54-.08.53-.15,1.05-.22,1.57-.63,4.57-1.11,8.82-1.66,11.19-.08.36-.17.71-.25,1.07-2.32,9.98-4.84,19.95-6.93,29.98-.11.54-.22,1.08-.33,1.62-3.4,16.9-5.28,33.83-13.2,49.54-2.02,4.01-4.37,7.84-7,11.47-.01.02-.03.04-.05.06H21v-108.77c.38-.12.76-.24,1.13-.37,3.49-1.24,6.2-4.45,6.85-8.1.3,1.65.61,3.3.91,4.95,1.43-3.33,2.86-6.66,4.28-10,1.92-4.48,3.84-8.96,5.76-13.44.21,4.3.41,8.6.62,12.9.13,2.76.26,5.52.39,8.27,2.33-2.39,3.95-5.45,4.67-8.71.24-1.09.37-2.2.4-3.31.84,1,1.64,2.02,2.41,3.07,3.41,4.62,6.16,9.73,8.13,15.13,2.39-1.82,4.78-3.64,7.17-5.46.21,2.03,2.61,3.33,4.6,2.88s3.48-2.19,4.24-4.08c1.4,1.48,1.36,4.09-.1,5.53,4.23-2.08,8.15-4.78,11.59-8-.1,2.01-.68,4.01-1.66,5.78,6.01-2.52,10.3-8.7,10.55-15.21,2.81,4.31,5.61,8.61,8.42,12.92.62.12,1.25.25,1.86.4,3.19.76,6.28,1.89,9.22,3.36,2.85,1.41,5.54,3.15,8,5.17-2.51-7.58-5.01-15.16-7.51-22.73,5.12,2.2,10.24,4.41,15.35,6.62-.54-2.91-.51-5.92.12-8.82,1,1.34,3.18.69,4.33-.57.05-.05.1-.11.14-.16,1.1-1.36,1.68-3.16,3.07-4.21,1.17-.88,2.71-1.07,4.17-1.21.79-.08,1.57-.15,2.36-.22.55-.05,1.1-.09,1.65-.14h.01c6.49-.52,13-.82,19.48-1.35,2.05-.17,4.09-.36,6.12-.58,4.36-.49,8.7-1.14,12.99-2.1,1.06-.24,2.12-.5,3.17-.77.01,0,.02-.01.02-.01,12.84-3.44,25.2-10.25,32.09-21.5.6,8.97-3.66,18.12-10.91,23.43,4.19-.32,8.32-1.36,12.17-3.05-.35,2.06-1.54,3.97-3.24,5.19,2.22-.52,4.43-1.04,6.65-1.56,8.04-1.89,16.08-3.78,24.11-5.67-3.53,4.09-7.35,7.92-11.42,11.46,3.29-1.82,6.82-3.18,10.47-4.06-2.27,3.24-5.08,6.11-8.27,8.46,5.2.61,10.52.2,15.56-1.21-1.18.93-2.37,1.86-3.55,2.79,5.01-1.47,9.76-3.86,13.93-7.01-.91,8.95-5.64,17.45-12.76,22.95,9.3-1.16,18.18-5.41,24.91-11.92Z"/>
    <path class="cls-26" d="m154.16,463.55c-.44-2.65-.85-5.48.25-7.93,1.23-2.73,4.09-4.36,6.92-5.32,3.13-1.06,6.76-1.49,9.61.17,4.13,2.4,4.96,8.15,3.77,12.78,2.09-5.48,7.68-9.45,13.54-9.61.95-.03,1.93.05,2.78.46,1.63.78,2.51,2.67,2.5,4.48s-.75,3.53-1.65,5.09c-2.47,4.28-6.24,7.81-10.67,9.99,1.34-.63,2.82-1.08,4.3-.92s2.94,1.04,3.46,2.43c.52,1.38.05,2.93-.52,4.29-1.63,3.97-4.07,7.68-7.45,10.31s-7.79,4.1-12.03,3.45-8.19-3.59-9.53-7.66c-2.38,3.2-6.92,3.99-10.87,3.42-2.85-.41-5.61-1.39-8.08-2.87-2.23-1.34-4.44-3.82-3.51-6.25.55-1.44,2.03-2.27,3.42-2.93,5.49-2.62,11.59-3.2,17.02-5.43-2.08-2.26-2.78-4.99-3.27-7.96Z"/>
    <path class="cls-11" d="m167.74,472.03c-2.3-.29-4.64,1.67-4.74,3.99-.01.28,0,.56.14.8.12.21.31.36.52.47,1.35.72,3.01-.08,4.2-1.04,1.17-.95,2.28-2.41,1.79-3.84-.33-.65-1.19-.97-1.87-.69l-.04.31Z"/>
    <path class="cls-9" d="m813,464.81v147.19h-385.44c-1.93-5.48-2.49-11.31-2.1-17.12.36-5.26,1.51-10.5,3.14-15.45,1.85-5.61,6.21-11.3,5.74-17.24-.06-.69-5.59-20.94-1.57-19.99,2.69.64,5.47-1.17,6.86-3.55,1.38-2.38,1.69-5.22,1.97-7.96,1,1,1.99,2.01,2.98,3.01,4.07-3.17,7.46-7.21,9.88-11.77,1.64,1.52,4.39,1.2,6.17-.15,1.78-1.36,2.78-3.48,3.57-5.57.19-.5.37-1.01.54-1.52,1.39-4.06,2.24-8.32,2.52-12.61.35,4.63,5.11,8.44,9.71,7.77,1.18-.17,2.34-.59,3.52-.51.03,0,.07,0,.1.01,1.36.13,2.77.84,4,.27,2.22-1.02,2.05-5.3,4.49-5.34,1.27-.02,2.22,1.33,3.49,1.41,1.79.12,2.37-1.9,3.1-3.79.55-1.44,1.19-2.81,2.55-3.06.87-.16,1.76.25,2.64.14.19-.02.38-.07.55-.13.98-.36,1.7-1.32,2.32-2.21,2.68-3.87,5.4-7.78,7.13-12.17.02-.04.03-.09.05-.13,2.26-5.79,2.66-12.02,2.41-18.29-.11-3.22-.4-6.46-.7-9.65,1.58,2.93,3.15,5.85,4.73,8.78.24.44.48.89.72,1.33.95,1.76,3.08,3.78,4.57,2.44.58-.53.72-1.39,1.24-1.98.97-1.1,2.69-.81,4.16-.85,1.46-.04,3.27-1.23,2.66-2.56,1.81,1.31,4.48.65,6.11-.89,1.62-1.53,2.44-3.7,3.21-5.8.82,1.24,1.64,2.49,2.45,3.73,4.3-4.76,7.53-10.48,9.39-16.62,1.45,2.79,2.9,5.57,4.36,8.36,2.29-2.56,5.11-4.64,8.23-6.07-.21,1.26-.41,2.52-.62,3.78,1.63.93,3.59-.38,4.99-1.62,7.23-6.36,14.46-12.73,21.69-19.09-4.67,5.65-9.4,11.39-12.56,18.01.1.02.2.03.3.04h.01c1.64.23,3.28.29,4.93.16,1.16-.07,2.32-.24,3.45-.5-1.44,1.31.86,3.65,2.79,3.37,1.93-.28,3.57-1.73,5.52-1.85,2.93-.18,5.09,2.58,6.69,5.04,3.1-2.37,8.04-3.86,11.13-6.23-2.06,4.1-3.24,8.64-3.43,13.22,2.06-.28,3.98-1.45,5.17-3.16-.2,1.46,1.15,2.66,2.46,3.34,6.75,3.5,17.23-1.43,16.23-8.97,3.76,9.95,13.04,17.61,23.53,19.4,5.68.24,11.11,3.76,13.65,8.85.84,1.69,1.54,3.71,3.27,4.5,1.48.67,3.2.18,4.74-.31,5.54-1.76,11.08-3.53,16.62-5.29,4.5,1.51,9.36-2.37,10.69-6.92s.15-9.41-1.03-14c2.51,4,5.02,8,7.53,11.99,9.78.86,19.18-8.34,18.54-18.13.94,4.32,1.89,8.64,2.84,12.96,7.32,2.75,16.41-.56,20.24-7.38-2,4.98-2.78,10.46-2.23,15.8,4.35-8.47,20.34.43,26.03-7.2-.79,1.78,1.84,3.31,3.74,2.88,1.91-.42,3.65-1.75,5.6-1.59,1.72.14,3.11,1.41,4.69,2.11,4.33,1.92,9.2-.63,13.47-2.66,2.4-1.14,5.27-2.05,7.88-2.01Z"/>
    <path class="cls-66" d="m541.99,485.39c-5.23.15-11.09.87-15.11-2.48-.97-.81-1.78-1.83-2.86-2.5-1.43-.89-3.21-1.07-4.67-1.92s-2.49-2.95-1.35-4.19c.76-.83,2.04-.82,3.16-.83,5.01-.06,9.98-1.94,13.79-5.2,2.25-1.93,4.8-4.52,7.64-3.66.63.19,1.19.54,1.82.73,2.7.81,5.29-1.62,6.67-4.08s2.41-5.39,4.86-6.78c2.62-1.48,5.89-.68,8.87-1.14,6.2-.96,11.32-7.42,17.45-6.06,1.03.23,2.03.7,2.71,1.5.64.76.94,1.75,1.21,2.71,1.32,4.66,2.42,9.84.3,14.19,4.69-3.26,9.38-6.52,14.07-9.78,1.33-.93,3.52-1.68,4.27-.24.26.49.2,1.08.14,1.64-.43,3.69-1.15,7.45-3.11,10.61-2.03,3.25-5.22,5.59-8.49,7.59-8.14,4.97-17.26,8.3-26.68,9.78-8.51,1.34-16.22-.12-24.69.11Z"/>
    <path class="cls-45" d="m551.28,471.5c1.37-2.33,4.29-3.15,6.94-3.71,3.81-.8,7.67-1.49,11.28-2.94,2.46-.99,4.8-2.34,7.39-2.92s5.6-.25,7.4,1.7c1.6,1.74,1.88,4.28,2.07,6.64.2,2.45.35,5.1-.96,7.17-.64,1.01-1.58,1.8-2.54,2.52-6.15,4.59-13.86,7.04-21.53,6.85-3.68-.09-7.41-1.06-8.9-4.71-1.15-2.8-2.77-7.83-1.15-10.59Z"/>
    <path class="cls-68" d="m626.95,496.57c5.51.3,10.51-5.4,9.48-10.83-.14-.73-.39-1.48-.92-2.01-1.67-1.62-4.37,0-6.06,1.6,1.4-1.88,2.8-3.76,4.2-5.64-1.46-2.44-4.55-3.38-7.38-3.49s-5.7.4-8.51-.05c-2.39-.38-4.55-1.67-6.89-.26-1.6.96-2.64,2.64-3.3,4.39-.31.84-.57,1.73-1.2,2.36s-1.79.84-2.38.16c-.46-.53-.36-1.32-.35-2.02.04-1.5-.79-4.8-2-5.81-1.5-1.25-1.82-.69-3.44.73-2.77,2.42-4.93,6.1-5.49,9.74-.66,4.29,1.17,9.11,5.03,11.1,4.2,2.17,9.44,2.93,14.16,2.68,5.46-.29,9.86-.98,15.05-2.69Z"/>
    <path class="cls-57" d="m599.64,487.4c.38-.52.82-1,1.39-1.29,1.17-.59,2.56-.23,3.84.08,4.63,1.11,9.48,1.28,14.17.5.47-.08.96-.17,1.43-.08,1.32.23,2.05,1.66,2.39,2.96,2.22,8.5-5.67,12.45-13.12,11.25-6.67-1.08-15.7-5.71-10.1-13.41Z"/>
    <path class="cls-34" d="m813,536.94v39.92c-.64,2.2,0,35.14,0,35.14h-427.96c-5-3.37-8.46-7.41-8.54-12.04-.05-2.72,1.1-5.39,1.64-8.09,1.93-9.65-4.01-19.15-9.82-28.11,2.38,2.84,8.8,3.82,12.9,1.98,3.19-1.44,4.39-4.34,3.21-6.71-.32-.66-.84-1.29-1.56-1.83,9.22.07,15.04-2.02,20.49-6.85,9.05-8.01,18.1-16.02,27.15-24.03,1.46-1.3,3.08-2.67,5.43-3.15,2.34-.49,4.86.01,7.31.14,8.93.49,15.99-3.67,21.49-8.62,1.86-1.67,3.54-3.44,5.06-5.14.87,2.85,7.18,1.79,10.79-.2.33-.18.64-.37.92-.57,3.15-2.21,6.07-4.55,8.74-7.01,4.47-4.1,8.26-8.51,11.27-13.14-.03,3.4-.07,6.82-.11,10.22v.29c4.22-1.38,8.07-3.23,11.32-5.46-.59.98.21,1.64,1.59,2,1.83.5,4.67.46,6.65-.07,3.22-.86,6.45-1.72,9.68-2.59-.54,1.12,1.84,2.06,3.53,1.64,1.69-.41,2.64-1.54,3.45-2.58,1.74-2.24,3.48-4.47,5.21-6.7,2.6-3.34,5.2-6.68,7.8-10.02.94-1.21,1.88-2.42,2.82-3.63-.56,2.87-1.12,5.75-1.68,8.63-.34,1.73-.68,3.47-1.02,5.21-.16.82-.32,1.65-.48,2.47,1.99-.73,3.99-1.45,5.98-2.18.04-.01.09-.03.13-.04h.04c2.01-.74,3.99-1.47,6-2.2.66.88,1.82,1.47,3.2,1.8h.02c1.56.38,3.38.45,5.11.29.51-.04,1.01-.11,1.49-.19,3.58-.61,6.97-1.89,10.68-1.88,3.47,0,6.63,1.11,9.73,2.28,2.16.82,4.29,1.67,6.5,2.2,1.82.44,3.68.67,5.64.49,2.76-.25,5.6-1.3,8.15-.58,2.94.83,2.95,2.89,2.75,5.15-.16,1.98-.5,4.12.86,5.69.14.16.29.31.46.45.28.24.59.44.93.62,4.57,2.41,13.57-.66,18.33,2.08,2.19,1.25,3.05,3.58,5.87,4.09,3.14.57,6.25-1.62,9.43-1.16,2.54.38,3.77,2.22,5.69,3.36,6.3,3.75,16.19-.94,24.7-.44,3.12.18,6.03,1.09,9.12,1.42,12.94,1.37,25.13-7.22,33.64-15.13,3.02-2.8,5.58-5.52,7.54-7.68-.38,2.37-.71,4.87-.23,7.21.36,1.8,1.2,3.5,2.85,4.98,3.81,3.4,13.71,3.76,15.72-.23-.83,2.48,3.2,4.54,7,5.18,3.79.64,8.05.64,11.14,2.21,7.78,3.95,1.99,14.24,10.83,17.11,2.23.72,4.93.72,7.03,1.59,5,2.1,3.06,7.01,1.1,10.66-1.96,3.65-1.85,9.12,4.01,9.8,2.85.33,5.56-.81,7.93-1.9,4.45-2.05,8.9-4.1,13.35-6.15Z"/>
    <path class="cls-19" d="m453.07,607.36c-1.24,1.53-2.48,3.07-3.68,4.64H21v-78.4c3.47,2.11,6.94,4.21,10.4,6.32,2.21,1.34,4.75,2.77,7.59,2.75,5.83-.04,6.55-5.46,5.02-9.3-1.53-3.84-2.89-8.94,2.25-10.48,2.16-.64,4.81-.34,7.08-.82,7.14-1.5,5.75-8.65,8.92-13.08.82-1.15,1.94-2.12,3.61-2.75,3.21-1.22,7.39-.76,11.19-.98,3.8-.22,8-1.83,7.45-4.39,1.54,4.19,11.31,4.9,15.42,1.94,1.72-1.24,2.72-2.76,3.29-4.43.8-2.33.75-4.93.63-7.4,2.1,2.93,5.02,6.83,8.59,10.76,3.15,3.46,6.82,6.94,10.9,9.79,5.49,3.85,11.73,6.57,18.48,6.59,3.07.01,6.03-.57,9.11-.42,8.43.43,17.63,6.17,24.23,3.13,2.02-.93,3.43-2.62,5.97-2.72,3.18-.12,5.99,2.4,9.14,2.18,2.82-.2,3.93-2.42,6.22-3.43,5.34-2.37,14.75,2.45,19.22-.59,4.13-2.8-.61-9.78,5.24-10.78,2.59-.43,5.27.92,7.95,1.47.5.1,1.01.18,1.51.23,6.97.67,13.33-3.59,20.54-2.8,3.64.4,6.83,2.04,10.29,3.04,3.15.91,7.23,1.12,9.3-.36.21-.14.39-.29.55-.47,3.19,1.59,6.39,3.18,9.58,4.77.63.32,1.25.63,1.88.94l-.18-2.28c-.1-1.21-.2-2.43-.3-3.64-.28-3.55-.57-7.09-.85-10.64,2.01,3.31,4.01,6.61,6.01,9.92.22.35.43.69.64,1.04,2.22,3.67,4.45,7.33,6.67,11,.68,1.12,1.49,2.35,3.11,2.94,1.61.59,4.05-.08,3.65-1.25,3.08,1.21,6.15,2.42,9.23,3.63,3.31,1.3,9.41,1.38,8.31-1.02,2.95,2.56,6.52,4.83,10.52,6.65.35-3.48.7-6.97,1.05-10.46,3.91,7.88,9.84,15.43,17.45,22.21,3.01,2.68,10.15,5.02,11.42,2.03,2.42,3.45,5.38,7.17,9.06,10.19h0c4.16,3.46,9.24,6.04,15.52,6.38.19,0,.37.02.56.02,2.25.09,4.56-.04,6.64.63,2.26.74,3.7,2.28,4.99,3.72,8.01,8.95,16.02,17.9,24.04,26.85,1.67,1.86,3.41,3.4,5.36,4.65,3.69,2.4,8.09,3.76,14.03,4.38-3.48,2.07-3.14,6.39.68,8.66,3.82,2.28,10.24,2,12.9-.56Z"/>
  </g>
</svg>