<?xml version="1.0" encoding="UTF-8"?>
<svg id="Layer_1" data-name="Layer 1" xmlns="http://www.w3.org/2000/svg" viewBox="0 0 792 1224">
  <defs>
    <style>
      .cls-1, .cls-2, .cls-3, .cls-4, .cls-5, .cls-6, .cls-7, .cls-8, .cls-9, .cls-10, .cls-11 {
        stroke-miterlimit: 10;
      }

      .cls-1, .cls-2, .cls-5, .cls-7, .cls-8, .cls-9, .cls-10, .cls-11 {
        stroke: #ec008c;
      }

      .cls-1, .cls-12, .cls-13 {
        fill: #ec008c;
      }

      .cls-2 {
        font-size: 78.17px;
        letter-spacing: .01em;
      }

      .cls-2, .cls-4, .cls-10, .cls-13, .cls-11 {
        font-family: Consolas-Bold, Consolas;
        font-weight: 700;
      }

      .cls-2, .cls-7 {
        stroke-width: 2px;
      }

      .cls-2, .cls-14 {
        fill: #231f20;
      }

      .cls-3 {
        stroke: #d1d3d4;
      }

      .cls-3, .cls-4, .cls-15, .cls-5, .cls-6, .cls-7, .cls-8, .cls-9, .cls-10, .cls-11 {
        fill: none;
      }

      .cls-4 {
        stroke: #fff;
      }

      .cls-4, .cls-10, .cls-13, .cls-11 {
        font-size: 75.35px;
        letter-spacing: .01em;
      }

      .cls-15 {
        opacity: .23;
      }

      .cls-5 {
        opacity: .63;
      }

      .cls-6 {
        stroke: #939598;
      }

      .cls-9 {
        stroke-width: 3px;
      }

      .cls-10 {
        opacity: .81;
      }

      .cls-11 {
        opacity: .53;
      }
    </style>
  </defs>
  <rect class="cls-14" width="792" height="1224"/>
  <g id="Layer_2" data-name="Layer 2">
    <g>
      <rect class="cls-6" x="138.9" y="440.5" width="514.19" height="343"/>
      <rect class="cls-6" x="220.38" y="494.85" width="351.23" height="234.3"/>
      <rect class="cls-6" x="246.89" y="512.53" width="298.23" height="198.94"/>
      <rect class="cls-6" x="266.09" y="525.34" width="259.81" height="173.31"/>
      <rect class="cls-6" x="283.45" y="536.92" width="225.11" height="150.16"/>
      <rect class="cls-6" x="301.02" y="548.64" width="189.97" height="126.72"/>
      <rect class="cls-6" x="313.66" y="557.08" width="164.67" height="109.85"/>
      <rect class="cls-6" x="322.34" y="562.86" width="147.32" height="98.27"/>
      <rect class="cls-6" x="329.42" y="567.59" width="133.16" height="88.83"/>
      <rect class="cls-6" x="337.3" y="572.84" width="117.41" height="78.32"/>
      <rect class="cls-6" x="343.43" y="576.93" width="105.15" height="70.14"/>
      <rect class="cls-6" x="348.27" y="580.16" width="95.46" height="63.68"/>
      <rect class="cls-6" x="353.95" y="585.22" width="84.1" height="55.68"/>
      <rect class="cls-6" x="359.42" y="589.18" width="73.15" height="48.43"/>
      <rect class="cls-6" x="179.33" y="467.47" width="433.33" height="289.06"/>
      <line class="cls-6" x1="432.58" y1="589.18" x2="653.09" y2="440.5"/>
      <line class="cls-6" x1="432.58" y1="637.61" x2="653.09" y2="783.5"/>
      <line class="cls-6" x1="359.42" y1="589.18" x2="138.9" y2="440.5"/>
      <line class="cls-6" x1="359.42" y1="637.61" x2="138.9" y2="783.5"/>
      <line class="cls-6" x1="359.42" y1="612" x2="138.9" y2="612"/>
      <line class="cls-6" x1="376.54" y1="637.61" x2="267.42" y2="783.5"/>
      <line class="cls-6" x1="395.93" y1="637.61" x2="395.93" y2="783.5"/>
      <line class="cls-6" x1="414.49" y1="637.61" x2="524.58" y2="783.5"/>
      <line class="cls-6" x1="432.58" y1="612" x2="653.1" y2="612"/>
      <line class="cls-6" x1="412.21" y1="589.18" x2="524.45" y2="440.5"/>
      <line class="cls-6" x1="395.93" y1="589.18" x2="395.93" y2="440.5"/>
      <line class="cls-6" x1="379.45" y1="588.94" x2="267.42" y2="440.5"/>
    </g>
  </g>
  <g>
    <line class="cls-3" x1="44.45" y1="87.36" x2="502.6" y2="87.36"/>
    <line class="cls-3" x1="44.45" y1="104.77" x2="502.6" y2="104.77"/>
    <line class="cls-3" x1="44.45" y1="122.17" x2="502.6" y2="122.17"/>
    <line class="cls-3" x1="44.45" y1="139.58" x2="502.6" y2="139.58"/>
    <line class="cls-3" x1="44.45" y1="156.98" x2="502.6" y2="156.98"/>
    <line class="cls-3" x1="44.45" y1="174.38" x2="502.6" y2="174.38"/>
    <line class="cls-3" x1="44.45" y1="191.79" x2="502.6" y2="191.79"/>
    <line class="cls-3" x1="59.19" y1="516.67" x2="59.19" y2="69.96"/>
    <line class="cls-3" x1="76.59" y1="516.67" x2="76.59" y2="69.96"/>
    <line class="cls-3" x1="94" y1="516.67" x2="94" y2="69.96"/>
    <line class="cls-3" x1="111.4" y1="516.67" x2="111.4" y2="69.96"/>
    <line class="cls-3" x1="128.81" y1="516.67" x2="128.81" y2="69.96"/>
    <line class="cls-3" x1="146.21" y1="516.67" x2="146.21" y2="69.96"/>
    <line class="cls-3" x1="163.61" y1="516.67" x2="163.61" y2="69.96"/>
  </g>
  <text class="cls-4" transform="translate(196.88 347.68)"><tspan x="0" y="0">DESIGN</tspan></text>
  <text class="cls-13" transform="translate(196.52 323.48)"><tspan x="0" y="0">DESIGN</tspan></text>
  <text class="cls-13" transform="translate(513.19 322.78)"><tspan x="0" y="0">IS</tspan></text>
  <text class="cls-13" transform="translate(236.72 661.82)"><tspan x="0" y="0">RESPONSE TO</tspan></text>
  <g>
    <text class="cls-11" transform="translate(196.84 924.54)"><tspan x="0" y="0">STRATEGIC</tspan></text>
    <text class="cls-10" transform="translate(196.88 900.84)"><tspan x="0" y="0">STRATEGIC</tspan></text>
    <text class="cls-13" transform="translate(196.16 880.01)"><tspan x="0" y="0">STRATEGIC</tspan></text>
  </g>
  <text class="cls-13" transform="translate(114.59 1039.41)"><tspan x="0" y="0">QUESTION</tspan></text>
  <text class="cls-13" transform="translate(622.77 405.57)"><tspan x="0" y="0">A</tspan></text>
  <text class="cls-13" transform="translate(158.19 782.94)"><tspan x="0" y="0">A</tspan></text>
  <text class="cls-2" transform="translate(268.87 483.18) scale(.96 1)"><tspan x="0" y="0">FORMAL</tspan></text>
  <g>
    <path class="cls-12" d="m536.25,1146.5v-2.07h5.93v2.07h-5.93Z"/>
    <path class="cls-12" d="m560.01,1150.66v-6.6c0-.24,0-.45-.02-.63s-.04-.33-.08-.45-.09-.21-.17-.27c-.07-.06-.17-.09-.3-.09-.2,0-.39.13-.58.4-.19.27-.41.72-.65,1.36v6.29h-1.99v-6.6c0-.24,0-.45-.02-.63s-.04-.33-.08-.45-.1-.21-.17-.27c-.08-.06-.18-.09-.31-.09-.17,0-.35.13-.55.4-.2.27-.43.72-.68,1.36v6.29h-2.01v-9.69h1.73l.04,1.41c.14-.29.28-.53.42-.73.14-.2.29-.37.45-.5.16-.13.33-.22.51-.28.18-.06.39-.09.62-.09.54,0,.95.14,1.24.42s.44.68.48,1.18c.15-.29.3-.53.45-.73.15-.2.31-.37.47-.5.16-.13.34-.22.52-.28.19-.06.4-.09.62-.09.71,0,1.23.25,1.56.74.34.49.5,1.22.5,2.19v6.95h-2.01Z"/>
    <path class="cls-12" d="m571.94,1150.66l-.06-1.27c-.2.22-.42.42-.64.6-.22.18-.47.34-.73.47-.27.13-.56.24-.87.31s-.66.11-1.04.11c-.5,0-.93-.07-1.31-.22s-.69-.35-.94-.61c-.25-.26-.45-.58-.58-.94-.13-.37-.2-.78-.2-1.22s.1-.88.29-1.27c.19-.39.49-.72.89-1,.4-.28.89-.5,1.49-.66s1.29-.24,2.09-.24h1.27v-.58c0-.25-.04-.47-.1-.67-.07-.2-.18-.37-.34-.51-.16-.14-.36-.25-.61-.32s-.55-.11-.92-.11c-.57,0-1.14.07-1.69.2-.56.13-1.1.31-1.62.55v-1.86c.46-.18,1-.34,1.61-.46.61-.12,1.24-.18,1.89-.18.72,0,1.34.07,1.85.21.52.14.94.34,1.27.62s.58.62.74,1.03.24.89.24,1.44v6.62h-1.99Zm-.33-4.28h-1.42c-.39,0-.73.04-1,.11s-.5.18-.67.32c-.17.13-.3.29-.38.46-.08.18-.12.36-.12.56,0,.39.13.69.38.9s.6.31,1.04.31c.32,0,.66-.12,1.01-.35s.73-.57,1.15-1.01v-1.3Z"/>
    <path class="cls-12" d="m584.8,1144.74c.01-.36,0-.67-.05-.92-.05-.25-.12-.46-.23-.63-.11-.17-.23-.29-.39-.36-.15-.08-.33-.12-.52-.12-.34,0-.7.14-1.06.42-.37.28-.77.75-1.21,1.4v6.13h-2.38v-9.69h2.11l.09,1.41c.16-.25.34-.47.54-.67.2-.2.42-.37.67-.51.24-.14.52-.25.82-.33s.63-.11.98-.11c.49,0,.92.08,1.3.25.38.17.7.42.95.75.26.33.45.75.57,1.25s.18,1.08.16,1.73h-2.34Z"/>
    <path class="cls-12" d="m594.38,1142.78h-2.74v-1.81h5.12v7.88h2.79v1.81h-8.25v-1.81h3.07v-6.07Zm2.58-4.46c0,.21-.04.41-.11.59s-.18.34-.32.48c-.14.14-.3.25-.48.32-.18.08-.38.12-.6.12s-.42-.04-.61-.12c-.19-.08-.35-.19-.49-.32s-.24-.3-.32-.48-.11-.38-.11-.59.04-.41.11-.59c.08-.18.18-.35.32-.49.14-.14.3-.25.49-.33.19-.08.39-.12.61-.12s.42.04.6.12c.18.08.34.19.48.33.14.14.24.3.32.49.08.18.11.38.11.59Z"/>
    <path class="cls-12" d="m612.68,1145.74c0,.76-.11,1.46-.32,2.09-.22.63-.53,1.17-.93,1.63-.41.45-.91.8-1.5,1.05-.59.25-1.27.37-2.02.37s-1.36-.11-1.93-.32c-.57-.21-1.05-.52-1.44-.94-.39-.42-.7-.94-.91-1.56-.21-.63-.32-1.36-.32-2.19,0-.77.11-1.47.33-2.1.22-.63.53-1.17.94-1.61s.91-.79,1.5-1.04c.59-.25,1.26-.37,2-.37s1.37.11,1.94.32c.57.21,1.05.53,1.44.95s.69.94.9,1.56.31,1.34.31,2.15Zm-2.42.06c0-1-.19-1.76-.57-2.27-.38-.5-.94-.76-1.67-.76-.41,0-.75.08-1.04.24s-.52.38-.71.65-.32.6-.41.97c-.09.37-.13.76-.13,1.18,0,1.01.2,1.77.61,2.28.41.51.96.77,1.67.77.39,0,.72-.08,1.01-.23.29-.16.52-.37.7-.65.18-.28.31-.6.4-.98.09-.38.13-.78.13-1.21Z"/>
    <path class="cls-12" d="m622.42,1150.66v-6.31c0-1.06-.39-1.59-1.18-1.59-.39,0-.77.16-1.13.48-.36.32-.74.75-1.14,1.3v6.13h-2.33v-9.69h2.01l.06,1.43c.2-.25.4-.47.62-.68.21-.2.44-.38.69-.52.25-.14.51-.25.8-.33s.61-.11.96-.11c.5,0,.93.08,1.3.24s.68.39.93.69.43.65.56,1.07c.12.42.19.88.19,1.4v6.51h-2.33Z"/>
    <path class="cls-12" d="m635.42,1150.66l-.06-1.27c-.2.22-.42.42-.64.6-.22.18-.47.34-.73.47-.27.13-.56.24-.87.31s-.66.11-1.04.11c-.5,0-.93-.07-1.31-.22s-.69-.35-.94-.61c-.25-.26-.45-.58-.58-.94-.13-.37-.2-.78-.2-1.22s.1-.88.29-1.27c.19-.39.49-.72.89-1,.4-.28.89-.5,1.49-.66s1.29-.24,2.09-.24h1.27v-.58c0-.25-.04-.47-.1-.67-.07-.2-.18-.37-.34-.51-.16-.14-.36-.25-.61-.32s-.55-.11-.92-.11c-.57,0-1.14.07-1.69.2-.56.13-1.1.31-1.62.55v-1.86c.46-.18,1-.34,1.61-.46.61-.12,1.24-.18,1.89-.18.72,0,1.34.07,1.85.21.52.14.94.34,1.27.62s.58.62.74,1.03.24.89.24,1.44v6.62h-1.99Zm-.33-4.28h-1.42c-.39,0-.73.04-1,.11s-.5.18-.67.32c-.17.13-.3.29-.38.46-.08.18-.12.36-.12.56,0,.39.13.69.38.9s.6.31,1.04.31c.32,0,.66-.12,1.01-.35s.73-.57,1.15-1.01v-1.3Z"/>
    <path class="cls-12" d="m657.86,1138.99h-2.74v-1.81h5.12v11.67h2.79v1.81h-8.25v-1.81h3.07v-9.85Z"/>
    <path class="cls-12" d="m676.15,1145.74c0,.76-.11,1.46-.32,2.09-.22.63-.53,1.17-.93,1.63-.41.45-.91.8-1.5,1.05-.59.25-1.27.37-2.02.37s-1.36-.11-1.93-.32c-.57-.21-1.05-.52-1.44-.94-.39-.42-.7-.94-.91-1.56-.21-.63-.32-1.36-.32-2.19,0-.77.11-1.47.33-2.1.22-.63.53-1.17.94-1.61s.91-.79,1.5-1.04c.59-.25,1.26-.37,2-.37s1.37.11,1.94.32c.57.21,1.05.53,1.44.95s.69.94.9,1.56.31,1.34.31,2.15Zm-2.42.06c0-1-.19-1.76-.57-2.27-.38-.5-.94-.76-1.67-.76-.41,0-.75.08-1.04.24s-.52.38-.71.65-.32.6-.41.97c-.09.37-.13.76-.13,1.18,0,1.01.2,1.77.61,2.28.41.51.96.77,1.67.77.39,0,.72-.08,1.01-.23.29-.16.52-.37.7-.65.18-.28.31-.6.4-.98.09-.38.13-.78.13-1.21Z"/>
    <path class="cls-12" d="m688.84,1145.64c0,.89-.13,1.66-.38,2.31s-.6,1.19-1.05,1.62c-.45.43-.98.75-1.59.95-.61.21-1.28.31-1.99.31-.24,0-.48-.02-.72-.05-.24-.03-.46-.07-.66-.12v3.79h-2.33v-13.48h2.01l.06,1.43c.2-.25.4-.47.62-.68.21-.2.44-.38.69-.52.25-.14.51-.25.8-.33s.61-.11.96-.11c.57,0,1.08.11,1.53.34.44.23.82.56,1.12.98.3.42.53.93.69,1.54.16.6.24,1.28.24,2.03Zm-2.44.1c0-.53-.04-.99-.11-1.36s-.19-.68-.33-.93c-.14-.24-.32-.42-.52-.53-.21-.11-.44-.17-.71-.17-.39,0-.77.16-1.13.48-.36.32-.74.75-1.14,1.3v4.24c.18.07.41.13.68.17.27.04.54.07.82.07.37,0,.71-.08,1.01-.23s.56-.37.77-.65c.21-.28.38-.62.49-1.03.11-.4.17-.86.17-1.36Z"/>
    <path class="cls-12" d="m701.25,1145.07c0,.16,0,.37-.01.62,0,.25-.02.49-.04.71h-6.37c0,.43.06.8.2,1.13.13.32.31.6.55.82.24.22.52.39.86.5s.7.17,1.11.17c.47,0,.97-.04,1.51-.11.54-.07,1.1-.19,1.67-.36v1.85c-.25.07-.52.13-.81.19-.29.06-.59.11-.9.15-.31.04-.61.08-.93.1-.31.02-.61.03-.91.03-.74,0-1.4-.11-1.98-.32-.59-.21-1.08-.52-1.49-.93-.41-.41-.72-.92-.94-1.52-.22-.6-.32-1.3-.32-2.1s.11-1.51.32-2.15c.22-.65.52-1.2.92-1.66s.87-.82,1.44-1.07c.56-.25,1.19-.38,1.88-.38s1.29.11,1.82.32c.53.21.97.51,1.33.89.36.38.63.84.81,1.36.18.53.28,1.11.28,1.74Zm-2.37-.33c0-.38-.04-.71-.14-1-.1-.28-.24-.52-.41-.7-.18-.18-.38-.32-.61-.41-.23-.09-.48-.13-.75-.13-.59,0-1.07.2-1.44.59-.38.39-.6.94-.67,1.66h4.03Z"/>
    <path class="cls-12" d="m705.61,1150.66v-1.62l4.74-6.08h-4.63v-1.99h7.7v1.64l-4.64,6h4.71v2.05h-7.89Z"/>
  </g>
  <rect class="cls-8" x="44.45" y="68.7" width="703.09" height="1086.6"/>
  <path class="cls-12" d="m729.03,175.01l-25.27-31.98c-1.45-1.83-2.24-4.1-2.24-6.44v-67.27h27.5v105.68Z"/>
  <path class="cls-12" d="m747.55,494.85l-15.4-22.78c-2.03-3-3.12-6.54-3.12-10.17V68.7h18.52v426.15Z"/>
  <line class="cls-8" x1="203.51" y1="211.4" x2="299.62" y2="211.4"/>
  <line class="cls-8" x1="203.51" y1="238.67" x2="203.51" y2="211.4"/>
  <line class="cls-8" x1="299.62" y1="255.13" x2="299.62" y2="211.4"/>
  <line class="cls-8" x1="299.62" y1="255.13" x2="276.8" y2="255.13"/>
  <line class="cls-8" x1="437.37" y1="362.47" x2="486.52" y2="362.47"/>
  <line class="cls-8" x1="446.08" y1="366.96" x2="486.52" y2="366.96"/>
  <line class="cls-8" x1="62.66" y1="1042.28" x2="62.66" y2="1138"/>
  <line class="cls-8" x1="62.66" y1="1138" x2="158.38" y2="1138"/>
  <circle class="cls-14" cx="725.05" cy="91.96" r="16.13"/>
  <circle class="cls-14" cx="725.05" cy="128.39" r="10.57"/>
  <g class="cls-15">
    <polygon class="cls-1" points="417.03 857.04 364.54 909.53 364.54 857.04 417.03 857.04"/>
    <polygon class="cls-1" points="525.2 857.04 364.54 1017.71 364.54 963.53 471.03 857.04 525.2 857.04"/>
    <polygon class="cls-1" points="633.08 857.04 429.7 1060.42 375.53 1060.42 578.91 857.04 633.08 857.04"/>
    <polygon class="cls-1" points="740.29 857.04 740.29 858.01 537.88 1060.42 483.72 1060.42 687.09 857.04 740.29 857.04"/>
    <polygon class="cls-1" points="740.29 911.41 740.29 965.59 645.46 1060.42 591.28 1060.42 740.29 911.41"/>
    <polygon class="cls-1" points="699.46 1060.42 740.29 1019.59 740.29 1060.42 699.46 1060.42"/>
    <polygon class="cls-12" points="417.03 857.04 364.54 909.53 364.54 857.04 417.03 857.04"/>
    <polygon class="cls-12" points="525.2 857.04 364.54 1017.71 364.54 963.53 471.03 857.04 525.2 857.04"/>
    <polygon class="cls-12" points="633.08 857.04 429.7 1060.42 375.53 1060.42 578.91 857.04 633.08 857.04"/>
    <polygon class="cls-12" points="740.29 857.04 740.29 858.01 537.88 1060.42 483.72 1060.42 687.09 857.04 740.29 857.04"/>
    <polygon class="cls-12" points="740.29 911.41 740.29 965.59 645.46 1060.42 591.28 1060.42 740.29 911.41"/>
    <polygon class="cls-12" points="740.29 1019.59 740.29 1060.42 699.46 1060.42 740.29 1019.59"/>
  </g>
  <line class="cls-8" x1="199.01" y1="815.17" x2="229.07" y2="815.17"/>
  <line class="cls-8" x1="199.01" y1="809.05" x2="275.44" y2="809.05"/>
  <ellipse class="cls-5" cx="111.4" cy="843.6" rx="44.63" ry="11.68"/>
  <ellipse class="cls-5" cx="111.4" cy="855.28" rx="44.63" ry="11.68"/>
  <ellipse class="cls-5" cx="111.4" cy="866.96" rx="44.63" ry="11.68"/>
  <ellipse class="cls-5" cx="111.4" cy="878.64" rx="44.63" ry="11.68"/>
  <ellipse class="cls-5" cx="111.4" cy="890.32" rx="44.63" ry="11.68"/>
  <ellipse class="cls-5" cx="111.4" cy="902" rx="44.63" ry="11.68"/>
  <ellipse class="cls-5" cx="111.4" cy="913.68" rx="44.63" ry="11.68"/>
  <rect class="cls-9" x="578.88" y="93.23" width="95.17" height="95.17"/>
  <g>
    <g>
      <path class="cls-7" d="m653.19,186.18c-.04.07-.08.13-.12.2-.02.03-.04.06-.06.09-.43.66-.89,1.3-1.35,1.94h-72.77v-67.39c6.11-5.26,13.32-8.87,20.95-10.67,3.79-.9,7.69-1.37,11.6-1.37.42,0,.84,0,1.25.02h.01c.4.01.81.02,1.21.05.35.02.69.04,1.04.06.19.01.39.02.58.04.33.03.65.06.97.09.35.04.7.08,1.05.12.18.02.36.05.55.07.6.08,1.19.17,1.78.28.28.05.55.09.82.15,1.97.38,3.93.87,5.86,1.49.42.13.83.27,1.24.42.41.14.82.29,1.23.45,1.08.41,2.17.87,3.24,1.36.26.12.53.25.8.38.26.13.53.26.8.39.26.13.53.27.79.41.79.41,1.57.85,2.35,1.32.03.02.06.04.09.05.23.13.45.27.67.41l.07.05c.08.05.17.1.25.15.05.03.1.06.15.09.15.09.29.18.44.28.04.02.06.04.1.06.04.02.06.04.1.06.36.24.72.49,1.07.74,11.35,7.92,18.44,19.74,20.63,32.44,2.07,12-.22,24.77-7.4,35.76Z"/>
      <path class="cls-7" d="m653.19,186.18c-.04.07-.08.13-.12.2-.02.03-.04.06-.06.09-1.83,2.56-7.85,2.01-16.17-.97-6.33-2.26-13.99-5.92-22.17-10.68-3.19-1.86-6.46-3.89-9.76-6.06s-6.45-4.39-9.42-6.59c-6.57-4.88-12.23-9.73-16.6-14.14v-17.79c2.1.43,4.48,1.13,7.09,2.06,6.33,2.26,13.99,5.92,22.17,10.68,3.19,1.86,6.46,3.89,9.76,6.06,3.3,2.18,6.45,4.39,9.42,6.59,7.59,5.64,13.97,11.24,18.54,16.17,5.94,6.4,8.82,11.66,7.33,14.39Z"/>
      <path class="cls-7" d="m632.33,146.42c-1.5,2.96-3.17,6.05-5.01,9.21-1.86,3.2-3.89,6.47-6.06,9.77s-4.39,6.45-6.59,9.42c-2.18,2.94-4.36,5.7-6.49,8.24-1.61,1.91-3.19,3.7-4.73,5.35h-19.96c1.35-4.77,3.74-10.61,6.98-17.03,1.5-2.96,3.17-6.05,5.01-9.21,1.86-3.2,3.89-6.46,6.06-9.76,2.18-3.3,4.39-6.46,6.59-9.42,2.18-2.94,4.36-5.69,6.49-8.23,10.55-12.56,20.05-19.83,24.06-17.64.04.02.06.04.1.06.04.02.06.04.1.06,3.89,2.56.97,14.3-6.55,29.19Z"/>
      <path class="cls-7" d="m651.98,151.85c-.77,6.54-2.81,13.33-6.12,19.94h0c-1.2,2.41-2.56,4.79-4.1,7.12-1.54,2.33-3.18,4.53-4.93,6.58-.85,1-1.72,1.98-2.62,2.91h-55.33v-46.04c.67-1.18,1.4-2.34,2.16-3.49,1.54-2.33,3.18-4.53,4.93-6.58,4.77-5.64,10.23-10.19,15.93-13.48,12.18-7.04,25.49-8.36,35.73-2.36h0s.08.05.13.08l.07.05c.08.05.17.1.25.15.05.03.1.06.15.09.15.09.29.18.44.28.04.02.06.04.1.06.04.02.06.04.1.06.36.24.72.49,1.07.74,9.63,7.04,13.7,19.85,12.02,33.88Z"/>
      <path class="cls-7" d="m660.59,150.42c-2.33,1.08-5.26,1.54-8.61,1.43-5.68-.18-12.55-2.04-19.64-5.43-3.07-1.46-6.18-3.22-9.25-5.25s-5.91-4.19-8.46-6.44c-5.91-5.19-10.32-10.77-12.73-15.92-1.41-3.03-2.14-5.91-2.07-8.48,12.54-2.99,26.2-1.12,37.94,6.19.37.22.75.45,1.11.69s.72.49,1.07.75c11.35,7.91,18.44,19.73,20.63,32.44Z"/>
    </g>
    <path class="cls-7" d="m613.62,188.4h-34.74v-21.27c3.67.91,7.59,2.33,11.58,4.24h0c3.07,1.46,6.17,3.21,9.24,5.24,3.08,2.03,5.91,4.19,8.47,6.44,1.99,1.75,3.82,3.55,5.44,5.35Z"/>
  </g>
</svg>